<svg width="22.000000" height="22.000000" viewBox="0 0 22 22" fill="none" xmlns="http://www.w3.org/2000/svg" xmlns:xlink="http://www.w3.org/1999/xlink">
	<desc>
			Created with Pixso.
	</desc>
	<defs/>
	<path d="M11.58 12.92C12 13.89 13.03 13.51 13.22 13.06L14.81 10.3L17.66 8.75C18.11 8.59 18.51 7.52 17.52 7.06L10 4.49C9.06 4.32 8.67 5.1 8.87 5.71L11.58 12.92ZM15.04 8.19L13.78 8.85C13.59 8.89 13.5 9.04 13.4 9.17L12.66 10.48L11.3 6.88L15.04 8.19Z" fill="#FFFFFF" fill-opacity="1.000000" fill-rule="nonzero"/>
	<path d="M21.07 0L0.93 0C0.42 0 0 0.42 0 0.93L0 15.91C0 16.42 0.42 16.85 0.93 16.85L7.05 16.85L7.05 20.12L5.65 20.12C5.14 20.12 4.71 20.55 4.71 21.06C4.71 21.57 5.14 22 5.65 22L16.3 22C16.81 22 17.23 21.57 17.23 21.06C17.23 20.55 16.81 20.12 16.3 20.12L14.94 20.12L14.94 16.85L21.02 16.85C21.53 16.85 21.95 16.42 22 15.96L22 0.93C22 0.42 21.58 0 21.07 0ZM13.08 20.13L8.87 20.13L8.87 16.85L13.08 16.85L13.08 20.13ZM20.13 15.02L1.82 15.02L1.82 1.82L20.13 1.82L20.13 15.02Z" fill="#FFFFFF" fill-opacity="1.000000" fill-rule="nonzero"/>
</svg>
