<svg width="22.000000" height="22.000000" viewBox="0 0 22 22" fill="none" xmlns="http://www.w3.org/2000/svg" xmlns:xlink="http://www.w3.org/1999/xlink">
	<desc>
			Created with Pixso.
	</desc>
	<defs/>
	<path d="M13.74 22L17.87 22C18.25 22 18.56 21.69 18.56 21.31L18.56 11.68L21.31 11.68C21.59 11.68 21.84 11.52 21.94 11.26C22.05 11 21.99 10.71 21.79 10.51L11.48 0.2C11.21 -0.07 10.78 -0.07 10.51 0.2L0.2 10.51C0 10.71 -0.06 11 0.05 11.26C0.15 11.52 0.4 11.68 0.68 11.68L3.43 11.68L3.43 21.31C3.43 21.69 3.74 22 4.12 22L8.24 22C8.62 22 8.93 21.69 8.93 21.31L8.93 16.5L13.06 16.5L13.06 21.31C13.06 21.69 13.37 22 13.74 22ZM8.24 15.12C7.87 15.12 7.56 15.43 7.56 15.81L7.56 20.62L4.81 20.62L4.81 11C4.81 10.62 4.5 10.31 4.12 10.31L2.34 10.31L10.99 1.65L19.65 10.31L17.87 10.31C17.49 10.31 17.18 10.62 17.18 11L17.18 20.62L14.43 20.62L14.43 15.81C14.43 15.43 14.12 15.12 13.74 15.12L8.24 15.12Z" fill="#FFFFFF" fill-opacity="1.000000" fill-rule="nonzero"/>
	<rect x="8.750000" y="6.750000" rx="2.250000" width="4.500000" height="4.500000" stroke="#FFFFFF" stroke-opacity="1.000000" stroke-width="1.500000"/>
</svg>
