<svg width="282.000000" height="200.000000" viewBox="0 0 282 200" fill="none" xmlns="http://www.w3.org/2000/svg" xmlns:xlink="http://www.w3.org/1999/xlink">
	<desc>
			Created with Pixso.
	</desc>
	<defs>
		<clipPath id="clip2_192">
			<rect width="282.000000" height="200.000000" fill="white" fill-opacity="0"/>
		</clipPath>
	</defs>
	<rect width="282.000000" height="200.000000" fill="#FFFFFF" fill-opacity="0"/>
	<g clip-path="url(#clip2_192)">
		<path d="M50.57 100.9C50.37 101.18 50.12 101.41 49.83 101.58C49.55 101.74 49.23 101.84 48.91 101.85C48.59 101.87 48.26 101.81 47.96 101.67C47.66 101.54 47.4 101.33 47.18 101.07L39.96 104.52L40.67 100.09L47.41 97.5C47.83 97.12 48.37 96.93 48.91 96.96C49.46 96.99 49.97 97.23 50.36 97.65C50.75 98.07 50.99 98.63 51.02 99.23C51.06 99.83 50.9 100.42 50.57 100.9L50.57 100.9Z" fill="#A0616A" fill-opacity="1.000000" fill-rule="nonzero"/>
		<path d="M45.75 102.28L29 110.49L28.96 110.47L9.86 102.99C8.44 102.17 7.36 100.79 6.83 99.12C6.31 97.45 6.38 95.62 7.04 94.01C7.41 93.13 7.94 92.33 8.61 91.68C9.27 91.04 10.05 90.55 10.9 90.26C11.75 89.97 12.64 89.88 13.52 90C14.4 90.12 15.25 90.44 16.01 90.94L30.22 100.36L44 98.39L45.75 102.28Z" fill="#3F3D56" fill-opacity="1.000000" fill-rule="nonzero"/>
		<path d="M52.77 48.23C46.44 32.82 46.67 13.29 56.5 0.29C59.79 18.32 68.77 34.49 81.86 45.94C86.92 50.33 92.97 54.64 94.35 61.57C95.21 65.88 93.99 70.44 91.88 74.19C89.77 77.95 86.83 81.04 83.93 84.08L83.6 85.12C70.96 75.5 59.11 63.64 52.77 48.23Z" fill="#F0F0F0" fill-opacity="1.000000" fill-rule="nonzero"/>
		<path d="M56.78 0.48C54.51 14.1 56.19 28.61 61.69 41.09C62.88 43.79 64.3 46.41 66.2 48.58C68.07 50.68 70.41 52.2 72.99 52.96C75.38 53.73 77.91 54.21 80.09 55.61C82.39 57.07 83.81 59.54 84.37 62.37C85.05 65.82 84.56 69.34 83.97 72.77C83.31 76.57 82.58 80.51 83.53 84.33C83.64 84.79 82.98 84.96 82.87 84.5C81.22 77.85 84.42 71.29 83.98 64.61C83.77 61.49 82.7 58.42 80.27 56.61C78.14 55.03 75.54 54.53 73.11 53.78C70.56 52.98 68.27 51.77 66.33 49.77C64.33 47.71 62.82 45.15 61.57 42.49C58.79 36.45 56.88 29.97 55.93 23.28C54.8 15.65 54.87 7.86 56.13 0.26C56.21 -0.21 56.85 0.01 56.78 0.48Z" fill="#FFFFFF" fill-opacity="1.000000" fill-rule="nonzero"/>
		<path d="M59.71 37.14C57.66 37.86 55.44 37.76 53.45 36.85C51.46 35.94 49.83 34.28 48.85 32.17C48.65 31.74 49.25 31.39 49.44 31.81C50.35 33.78 51.87 35.33 53.73 36.17C55.58 37.01 57.65 37.1 59.56 36.41C59.97 36.26 60.12 36.99 59.71 37.14L59.71 37.14Z" fill="#FFFFFF" fill-opacity="1.000000" fill-rule="nonzero"/>
		<path d="M71.73 52.75C73.78 48.46 74.29 43.48 73.15 38.8C73.04 38.34 73.7 38.17 73.81 38.63C74.99 43.5 74.45 48.69 72.31 53.14C72.1 53.57 71.53 53.17 71.73 52.75Z" fill="#FFFFFF" fill-opacity="1.000000" fill-rule="nonzero"/>
		<path d="M55.67 15.89C56.52 15.79 57.33 15.46 58.03 14.93C58.74 14.41 59.31 13.69 59.7 12.86C59.9 12.44 60.48 12.83 60.28 13.26C59.84 14.17 59.21 14.96 58.43 15.54C57.66 16.13 56.76 16.5 55.83 16.61C55.74 16.63 55.65 16.62 55.57 16.56C55.5 16.51 55.44 16.43 55.42 16.34C55.4 16.24 55.42 16.14 55.46 16.06C55.51 15.97 55.59 15.91 55.67 15.89Z" fill="#FFFFFF" fill-opacity="1.000000" fill-rule="nonzero"/>
		<path d="M108.56 0.44C108.45 0.71 108.33 0.98 108.21 1.26C106.65 4.9 105.36 8.69 104.35 12.57C104.27 12.86 104.19 13.17 104.11 13.47C101.77 22.84 101.04 32.61 101.94 42.28C102.31 46.13 102.93 49.94 103.82 53.68C105.05 58.85 106.76 64.34 106.37 69.5C106.34 70.04 106.27 70.58 106.18 71.11L84.78 85.48C84.72 85.49 84.66 85.5 84.6 85.5L83.76 86.12C83.71 85.93 83.65 85.73 83.59 85.54C83.56 85.43 83.53 85.32 83.49 85.21C83.47 85.14 83.45 85.06 83.43 85C83.42 84.97 83.42 84.95 83.41 84.93C83.39 84.86 83.37 84.8 83.35 84.74C83.03 83.63 82.72 82.52 82.42 81.41C82.41 81.4 82.41 81.4 82.41 81.4C80.1 72.9 78.42 64.12 78 55.34C77.98 55.07 77.97 54.8 77.96 54.53C77.79 50.57 77.92 46.6 78.34 42.66C78.57 40.51 78.91 38.37 79.34 36.25C80.46 30.78 82.37 25.54 84.97 20.72C90.17 11.11 98.11 3.43 107.82 0.64C108.07 0.57 108.31 0.5 108.56 0.44Z" fill="#F0F0F0" fill-opacity="1.000000" fill-rule="nonzero"/>
		<path d="M108.68 0.77C99.42 10.15 92.82 22.85 90.37 36.46C89.84 39.4 89.54 42.43 89.87 45.42C90.21 48.34 91.26 51.1 92.9 53.42C94.38 55.61 96.14 57.67 97.12 60.23C98.15 62.92 97.94 65.83 96.83 68.46C95.48 71.67 93.16 74.15 90.82 76.5C88.21 79.1 85.47 81.76 84.14 85.44C83.97 85.88 83.35 85.58 83.52 85.14C85.84 78.74 91.99 75.62 95.29 69.99C96.83 67.36 97.66 64.2 96.71 61.15C95.88 58.48 94.07 56.35 92.55 54.14C90.94 51.82 89.78 49.34 89.32 46.45C88.86 43.49 89.05 40.44 89.51 37.49C90.59 30.83 92.62 24.39 95.52 18.41C98.8 11.57 103.12 5.4 108.28 0.17C108.6 -0.16 109 0.45 108.68 0.77L108.68 0.77Z" fill="#FFFFFF" fill-opacity="1.000000" fill-rule="nonzero"/>
		<path d="M90.96 31.99C88.92 31.2 87.2 29.65 86.11 27.61C85.02 25.57 84.63 23.16 85 20.83C85.08 20.35 85.75 20.46 85.67 20.94C85.32 23.11 85.69 25.35 86.71 27.25C87.73 29.15 89.33 30.59 91.23 31.3C91.64 31.46 91.37 32.14 90.96 31.99L90.96 31.99Z" fill="#FFFFFF" fill-opacity="1.000000" fill-rule="nonzero"/>
		<path d="M92.01 52.41C95.99 50.35 99.12 46.7 100.77 42.21C100.94 41.77 101.56 42.07 101.39 42.51C99.67 47.18 96.4 50.97 92.25 53.11C91.86 53.31 91.61 52.61 92.01 52.41Z" fill="#FFFFFF" fill-opacity="1.000000" fill-rule="nonzero"/>
		<path d="M99.36 12.34C100.09 12.83 100.92 13.1 101.77 13.15C102.62 13.19 103.47 13 104.24 12.6C104.63 12.39 104.87 13.08 104.48 13.29C103.63 13.73 102.69 13.94 101.75 13.9C100.81 13.85 99.9 13.55 99.09 13.03C99.01 12.98 98.95 12.91 98.91 12.82C98.88 12.73 98.88 12.63 98.92 12.53C98.95 12.44 99.02 12.37 99.1 12.34C99.19 12.3 99.28 12.31 99.36 12.34Z" fill="#FFFFFF" fill-opacity="1.000000" fill-rule="nonzero"/>
		<path d="M190.59 56.33C184.26 40.92 184.49 21.38 194.32 8.38C197.61 26.41 206.59 42.58 219.68 54.03C224.74 58.43 230.79 62.74 232.17 69.66C233.03 73.97 231.81 78.53 229.7 82.29C227.59 86.04 224.65 89.13 221.75 92.18L221.42 93.22C208.78 83.59 196.93 71.74 190.59 56.33Z" fill="#F0F0F0" fill-opacity="1.000000" fill-rule="nonzero"/>
		<path d="M194.6 8.57C192.33 22.19 194.01 36.7 199.51 49.19C200.7 51.88 202.12 54.51 204.02 56.68C205.89 58.78 208.23 60.29 210.81 61.06C213.2 61.82 215.73 62.31 217.91 63.7C220.21 65.17 221.63 67.63 222.19 70.46C222.87 73.92 222.38 77.44 221.79 80.86C221.13 84.67 220.4 88.6 221.35 92.43C221.46 92.89 220.8 93.06 220.69 92.59C219.04 85.94 222.24 79.39 221.8 72.7C221.59 69.58 220.52 66.51 218.09 64.7C215.96 63.12 213.36 62.62 210.93 61.87C208.38 61.08 206.09 59.87 204.15 57.86C202.15 55.81 200.64 53.24 199.39 50.59C196.61 44.55 194.7 38.06 193.75 31.37C192.62 23.74 192.69 15.95 193.95 8.35C194.03 7.88 194.67 8.1 194.6 8.57Z" fill="#FFFFFF" fill-opacity="1.000000" fill-rule="nonzero"/>
		<path d="M197.53 45.23C195.48 45.96 193.26 45.85 191.27 44.94C189.28 44.03 187.65 42.37 186.67 40.26C186.47 39.84 187.07 39.48 187.26 39.91C188.17 41.87 189.69 43.42 191.55 44.26C193.4 45.11 195.47 45.19 197.38 44.51C197.79 44.36 197.94 45.08 197.53 45.23L197.53 45.23Z" fill="#FFFFFF" fill-opacity="1.000000" fill-rule="nonzero"/>
		<path d="M209.55 60.84C211.6 56.56 212.11 51.58 210.97 46.9C210.86 46.43 211.52 46.26 211.63 46.73C212.81 51.6 212.27 56.78 210.13 61.24C209.92 61.66 209.35 61.27 209.55 60.84Z" fill="#FFFFFF" fill-opacity="1.000000" fill-rule="nonzero"/>
		<path d="M193.49 23.98C194.34 23.88 195.15 23.56 195.85 23.03C196.56 22.5 197.13 21.79 197.52 20.96C197.72 20.53 198.3 20.93 198.1 21.35C197.66 22.27 197.03 23.05 196.25 23.64C195.48 24.22 194.58 24.59 193.65 24.71C193.56 24.73 193.47 24.71 193.39 24.66C193.32 24.61 193.26 24.52 193.24 24.43C193.22 24.33 193.23 24.23 193.28 24.15C193.33 24.07 193.4 24.01 193.49 23.98Z" fill="#FFFFFF" fill-opacity="1.000000" fill-rule="nonzero"/>
		<path d="M246.38 8.53C246.26 8.8 246.15 9.07 246.03 9.35C244.47 13 243.17 16.78 242.17 20.66C242.08 20.96 242 21.26 241.93 21.56C239.59 30.94 238.86 40.71 239.76 50.37C240.12 54.22 240.75 58.03 241.64 61.77C242.87 66.94 244.58 72.44 244.19 77.6C244.16 78.14 244.09 78.67 244 79.2L222.6 93.57C222.54 93.58 222.48 93.59 222.41 93.6L221.58 94.21C221.53 94.02 221.47 93.83 221.41 93.64C221.38 93.53 221.35 93.41 221.31 93.3C221.29 93.23 221.27 93.16 221.25 93.09C221.24 93.07 221.23 93.04 221.23 93.02C221.21 92.96 221.19 92.89 221.17 92.83C220.85 91.73 220.54 90.62 220.23 89.5C220.23 89.5 220.23 89.5 220.23 89.49C217.92 81 216.24 72.21 215.81 63.43C215.8 63.17 215.79 62.9 215.78 62.63C215.61 58.67 215.74 54.7 216.16 50.76C216.39 48.6 216.73 46.46 217.16 44.34C218.28 38.87 220.19 33.63 222.79 28.81C227.99 19.2 235.93 11.52 245.64 8.74C245.89 8.67 246.13 8.6 246.38 8.53Z" fill="#F0F0F0" fill-opacity="1.000000" fill-rule="nonzero"/>
		<path d="M246.5 8.86C237.23 18.24 230.63 30.94 228.19 44.55C227.66 47.49 227.36 50.53 227.69 53.52C228.03 56.43 229.08 59.19 230.71 61.51C232.2 63.71 233.96 65.76 234.94 68.32C235.97 71.01 235.75 73.92 234.65 76.55C233.3 79.76 230.98 82.25 228.64 84.59C226.03 87.19 223.29 89.85 221.95 93.53C221.79 93.98 221.17 93.67 221.34 93.23C223.66 86.83 229.81 83.71 233.11 78.08C234.65 75.45 235.48 72.29 234.53 69.24C233.7 66.57 231.89 64.45 230.36 62.24C228.76 59.92 227.6 57.44 227.14 54.54C226.68 51.59 226.87 48.53 227.33 45.59C228.41 38.92 230.44 32.48 233.34 26.51C236.62 19.67 240.93 13.5 246.1 8.26C246.42 7.94 246.82 8.54 246.5 8.86L246.5 8.86Z" fill="#FFFFFF" fill-opacity="1.000000" fill-rule="nonzero"/>
		<path d="M228.77 40.08C226.74 39.3 225.02 37.75 223.93 35.7C222.84 33.66 222.45 31.26 222.82 28.92C222.9 28.45 223.57 28.56 223.49 29.03C223.14 31.2 223.51 33.44 224.53 35.34C225.55 37.25 227.15 38.68 229.05 39.4C229.46 39.55 229.18 40.23 228.77 40.08Z" fill="#FFFFFF" fill-opacity="1.000000" fill-rule="nonzero"/>
		<path d="M229.83 60.51C233.81 58.44 236.94 54.8 238.59 50.31C238.76 49.86 239.38 50.16 239.21 50.61C237.49 55.28 234.22 59.06 230.07 61.2C229.67 61.4 229.43 60.71 229.83 60.51Z" fill="#FFFFFF" fill-opacity="1.000000" fill-rule="nonzero"/>
		<path d="M237.18 20.44C237.91 20.92 238.74 21.2 239.59 21.24C240.44 21.28 241.29 21.1 242.06 20.69C242.45 20.48 242.69 21.18 242.3 21.39C241.45 21.83 240.51 22.04 239.57 21.99C238.63 21.94 237.72 21.64 236.91 21.12C236.83 21.08 236.76 21 236.73 20.91C236.7 20.82 236.7 20.72 236.73 20.63C236.77 20.54 236.84 20.47 236.92 20.43C237.01 20.4 237.1 20.4 237.18 20.44Z" fill="#FFFFFF" fill-opacity="1.000000" fill-rule="nonzero"/>
		<path d="M62.48 157.58L225.45 157.58L225.45 53.82C225.45 53.04 225.17 52.29 224.67 51.74C224.17 51.19 223.49 50.88 222.78 50.88L65.15 50.88C64.44 50.88 63.77 51.19 63.27 51.74C62.77 52.29 62.48 53.04 62.48 53.82L62.48 157.58Z" fill="#CACACA" fill-opacity="1.000000" fill-rule="nonzero"/>
		<path d="M67.52 54.94L220.42 54.94L220.42 150.41L67.52 150.41L67.52 54.94Z" fill="#FFFFFF" fill-opacity="1.000000" fill-rule="evenodd"/>
		<path d="M62.34 154.78L62.34 167.58C62.34 168.11 62.44 168.64 62.62 169.13C62.81 169.62 63.08 170.06 63.42 170.44C63.76 170.81 64.16 171.11 64.61 171.31C65.06 171.52 65.53 171.62 66.02 171.62L126.17 171.62L126.17 196.89L125.37 196.89C125.31 196.89 125.24 196.91 125.19 196.93C125.13 196.96 125.08 197 125.03 197.05C124.99 197.1 124.95 197.15 124.93 197.22C124.9 197.28 124.89 197.35 124.89 197.42L124.89 199.18C124.89 199.24 124.9 199.31 124.93 199.38C124.95 199.44 124.99 199.5 125.03 199.55C125.08 199.6 125.13 199.63 125.19 199.66C125.24 199.69 125.31 199.7 125.37 199.7L162.71 199.7C162.77 199.7 162.83 199.69 162.89 199.66C162.95 199.63 163 199.6 163.05 199.55C163.09 199.5 163.13 199.44 163.15 199.38C163.17 199.31 163.19 199.24 163.19 199.18L163.19 197.42C163.19 197.35 163.17 197.28 163.15 197.22C163.13 197.15 163.09 197.1 163.05 197.05C163 197 162.95 196.96 162.89 196.93C162.83 196.91 162.77 196.89 162.71 196.89L161.91 196.89L161.91 171.62L222.06 171.62C222.54 171.62 223.02 171.52 223.47 171.31C223.91 171.11 224.32 170.81 224.66 170.44C225 170.06 225.27 169.62 225.46 169.13C225.64 168.64 225.74 168.11 225.74 167.58L225.74 154.78L62.34 154.78Z" fill="#3F3D56" fill-opacity="1.000000" fill-rule="nonzero"/>
		<path d="M115.06 102.15L77.8 102.15C77.54 102.15 77.29 102.04 77.11 101.84C76.93 101.63 76.82 101.36 76.82 101.08L76.82 84.45C76.82 84.16 76.93 83.89 77.11 83.69C77.29 83.48 77.54 83.37 77.8 83.37L115.06 83.37C115.32 83.37 115.57 83.48 115.76 83.69C115.94 83.89 116.04 84.16 116.04 84.45L116.04 101.08C116.04 101.36 115.94 101.63 115.76 101.84C115.57 102.04 115.32 102.15 115.06 102.15Z" fill="#6C63FF" fill-opacity="1.000000" fill-rule="nonzero"/>
		<path d="M111.51 110.13L81.35 110.13C81.04 110.13 80.74 109.99 80.52 109.75C80.3 109.51 80.17 109.18 80.17 108.84C80.17 108.49 80.3 108.16 80.52 107.92C80.74 107.68 81.04 107.54 81.35 107.54L111.51 107.54C113.03 107.52 113.05 110.15 111.51 110.13Z" fill="#E4E4E4" fill-opacity="1.000000" fill-rule="nonzero"/>
		<path d="M111.52 116.05L81.35 116.05C81.04 116.05 80.74 115.92 80.52 115.67C80.3 115.43 80.17 115.1 80.17 114.76C80.17 114.42 80.3 114.09 80.52 113.85C80.74 113.6 81.04 113.47 81.35 113.47L111.52 113.47C113.03 113.44 113.05 116.08 111.52 116.05Z" fill="#E4E4E4" fill-opacity="1.000000" fill-rule="nonzero"/>
		<path d="M111.51 121.98L81.35 121.98C81.04 121.98 80.74 121.84 80.52 121.6C80.3 121.36 80.17 121.03 80.17 120.68C80.17 120.34 80.3 120.01 80.52 119.77C80.74 119.53 81.04 119.39 81.35 119.39L111.51 119.39C113.03 119.37 113.05 122 111.51 121.98Z" fill="#E4E4E4" fill-opacity="1.000000" fill-rule="nonzero"/>
		<path d="M162.6 102.15L125.34 102.15C125.08 102.15 124.83 102.04 124.65 101.84C124.46 101.63 124.36 101.36 124.36 101.08L124.36 84.45C124.36 84.16 124.46 83.89 124.65 83.69C124.83 83.48 125.08 83.37 125.34 83.37L162.6 83.37C162.86 83.37 163.11 83.48 163.29 83.69C163.47 83.89 163.58 84.16 163.58 84.45L163.58 101.08C163.58 101.36 163.47 101.63 163.29 101.84C163.11 102.04 162.86 102.15 162.6 102.15Z" fill="#6C63FF" fill-opacity="1.000000" fill-rule="nonzero"/>
		<path d="M159.05 110.13L128.89 110.13C128.57 110.13 128.28 109.99 128.05 109.75C127.83 109.51 127.71 109.18 127.71 108.84C127.71 108.49 127.83 108.16 128.05 107.92C128.28 107.68 128.57 107.54 128.89 107.54L159.05 107.54C160.57 107.52 160.58 110.15 159.05 110.13Z" fill="#E4E4E4" fill-opacity="1.000000" fill-rule="nonzero"/>
		<path d="M159.05 116.05L128.89 116.05C128.57 116.05 128.28 115.92 128.05 115.67C127.83 115.43 127.71 115.1 127.71 114.76C127.71 114.42 127.83 114.09 128.05 113.85C128.28 113.6 128.57 113.47 128.89 113.47L159.05 113.47C160.57 113.44 160.58 116.08 159.05 116.05Z" fill="#E4E4E4" fill-opacity="1.000000" fill-rule="nonzero"/>
		<path d="M159.05 121.98L128.89 121.98C128.57 121.98 128.28 121.84 128.05 121.6C127.83 121.36 127.71 121.03 127.71 120.68C127.71 120.34 127.83 120.01 128.05 119.77C128.28 119.53 128.57 119.39 128.89 119.39L159.05 119.39C160.57 119.37 160.58 122 159.05 121.98Z" fill="#E4E4E4" fill-opacity="1.000000" fill-rule="nonzero"/>
		<path d="M210.13 102.15L172.87 102.15C172.61 102.15 172.36 102.04 172.18 101.84C172 101.63 171.89 101.36 171.89 101.08L171.89 84.45C171.89 84.16 172 83.89 172.18 83.69C172.36 83.48 172.61 83.37 172.87 83.37L210.13 83.37C210.39 83.37 210.64 83.48 210.83 83.69C211.01 83.89 211.11 84.16 211.11 84.45L211.11 101.08C211.11 101.36 211.01 101.63 210.83 101.84C210.64 102.04 210.39 102.15 210.13 102.15Z" fill="#6C63FF" fill-opacity="1.000000" fill-rule="nonzero"/>
		<path d="M206.59 110.13L176.42 110.13C176.11 110.13 175.81 109.99 175.59 109.75C175.37 109.51 175.25 109.18 175.25 108.84C175.25 108.49 175.37 108.16 175.59 107.92C175.81 107.68 176.11 107.54 176.42 107.54L206.59 107.54C208.1 107.52 208.12 110.15 206.59 110.13Z" fill="#E4E4E4" fill-opacity="1.000000" fill-rule="nonzero"/>
		<path d="M206.58 116.05L176.42 116.05C176.11 116.05 175.81 115.92 175.59 115.67C175.37 115.43 175.25 115.1 175.25 114.76C175.25 114.42 175.37 114.09 175.59 113.85C175.81 113.6 176.11 113.47 176.42 113.47L206.58 113.47C208.1 113.44 208.12 116.08 206.58 116.05Z" fill="#E4E4E4" fill-opacity="1.000000" fill-rule="nonzero"/>
		<path d="M206.59 121.98L176.42 121.98C176.11 121.98 175.81 121.84 175.59 121.6C175.37 121.36 175.25 121.03 175.25 120.68C175.25 120.34 175.37 120.01 175.59 119.77C175.81 119.53 176.11 119.39 176.42 119.39L206.59 119.39C208.1 119.37 208.12 122 206.59 121.98Z" fill="#E4E4E4" fill-opacity="1.000000" fill-rule="nonzero"/>
		<path d="M263.8 83.59L263.9 104.44L264.32 104.41L264.71 112.13L263.94 112.17L263.96 116.81L264.58 116.8L264.71 124.52L264 124.53L264.34 192.54C264.35 194.32 263.71 196.03 262.57 197.3C261.43 198.57 259.88 199.28 258.26 199.29L189.96 199.7C188.34 199.71 186.78 199.01 185.63 197.76C184.48 196.51 183.83 194.8 183.82 193.02L183.28 84.07C183.27 82.29 183.91 80.58 185.05 79.32C186.19 78.05 187.74 77.33 189.35 77.32L257.66 76.91C259.28 76.91 260.84 77.61 261.99 78.86C263.14 80.11 263.79 81.81 263.8 83.59Z" fill="#3F3D56" fill-opacity="1.000000" fill-rule="nonzero"/>
		<path d="M258.36 195.01L189.82 195.42C189.32 195.42 188.84 195.2 188.48 194.82C188.13 194.43 187.93 193.91 187.92 193.36L187.38 83.69C187.38 83.14 187.58 82.61 187.93 82.22C188.28 81.83 188.76 81.61 189.26 81.61L257.8 81.2C258.3 81.2 258.78 81.41 259.14 81.8C259.49 82.18 259.69 82.71 259.7 83.26L260.24 192.93C260.24 193.48 260.04 194 259.69 194.39C259.34 194.78 258.86 195.01 258.36 195.01Z" fill="#FFFFFF" fill-opacity="1.000000" fill-rule="nonzero"/>
		<path d="M223.78 79.18C223.78 79.49 223.55 79.75 223.26 79.75C222.97 79.75 222.74 79.49 222.74 79.18C222.74 78.86 222.97 78.6 223.26 78.6C223.55 78.6 223.78 78.86 223.78 79.18Z" fill="#FFFFFF" fill-opacity="1.000000" fill-rule="evenodd"/>
		<path d="M243.65 112.07L203.97 112.07C203.7 112.07 203.43 111.95 203.24 111.73C203.04 111.52 202.93 111.22 202.93 110.92L202.93 93.22C202.93 92.91 203.04 92.62 203.24 92.4C203.43 92.19 203.7 92.07 203.97 92.07L243.65 92.07C243.92 92.07 244.19 92.19 244.38 92.4C244.58 92.62 244.69 92.91 244.69 93.22L244.69 110.92C244.69 111.22 244.58 111.52 244.38 111.73C244.19 111.95 243.92 112.07 243.65 112.07Z" fill="#6C63FF" fill-opacity="1.000000" fill-rule="nonzero"/>
		<path d="M239.87 120.56L207.75 120.56C207.42 120.56 207.1 120.41 206.87 120.16C206.63 119.9 206.5 119.55 206.5 119.18C206.5 118.82 206.63 118.47 206.87 118.21C207.1 117.95 207.42 117.81 207.75 117.81L239.87 117.81C241.48 117.78 241.5 120.58 239.87 120.56Z" fill="#E4E4E4" fill-opacity="1.000000" fill-rule="nonzero"/>
		<path d="M239.87 126.87L207.75 126.87C207.42 126.87 207.1 126.72 206.87 126.46C206.63 126.21 206.5 125.86 206.5 125.49C206.5 125.13 206.63 124.78 206.87 124.52C207.1 124.26 207.42 124.12 207.75 124.12L239.87 124.12C241.48 124.09 241.5 126.89 239.87 126.87Z" fill="#E4E4E4" fill-opacity="1.000000" fill-rule="nonzero"/>
		<path d="M239.87 133.17L207.75 133.17C207.42 133.17 207.1 133.03 206.87 132.77C206.63 132.51 206.5 132.16 206.5 131.8C206.5 131.43 206.63 131.08 206.87 130.83C207.1 130.57 207.42 130.42 207.75 130.42L239.87 130.42C241.48 130.4 241.5 133.2 239.87 133.17Z" fill="#E4E4E4" fill-opacity="1.000000" fill-rule="nonzero"/>
		<path d="M243.65 163.44L203.97 163.44C203.7 163.44 203.43 163.32 203.24 163.1C203.04 162.89 202.93 162.6 202.93 162.29L202.93 144.59C202.93 144.28 203.04 143.99 203.24 143.78C203.43 143.56 203.7 143.44 203.97 143.44L243.65 143.44C243.92 143.44 244.19 143.56 244.38 143.78C244.58 143.99 244.69 144.28 244.69 144.59L244.69 162.29C244.69 162.6 244.58 162.89 244.38 163.1C244.19 163.32 243.92 163.44 243.65 163.44Z" fill="#6C63FF" fill-opacity="1.000000" fill-rule="nonzero"/>
		<path d="M239.87 171.93L207.75 171.93C207.42 171.93 207.1 171.79 206.87 171.53C206.63 171.27 206.5 170.92 206.5 170.56C206.5 170.19 206.63 169.84 206.87 169.58C207.1 169.32 207.42 169.18 207.75 169.18L239.87 169.18C241.48 169.15 241.5 171.96 239.87 171.93Z" fill="#E4E4E4" fill-opacity="1.000000" fill-rule="nonzero"/>
		<path d="M239.87 178.24L207.75 178.24C207.42 178.24 207.1 178.09 206.87 177.84C206.63 177.58 206.5 177.23 206.5 176.86C206.5 176.5 206.63 176.15 206.87 175.89C207.1 175.63 207.42 175.49 207.75 175.49L239.87 175.49C241.48 175.46 241.5 178.26 239.87 178.24Z" fill="#E4E4E4" fill-opacity="1.000000" fill-rule="nonzero"/>
		<path d="M239.87 184.55L207.75 184.55C207.42 184.55 207.1 184.4 206.87 184.14C206.63 183.89 206.5 183.54 206.5 183.17C206.5 182.81 206.63 182.46 206.87 182.2C207.1 181.94 207.42 181.8 207.75 181.8L239.87 181.8C241.48 181.77 241.5 184.57 239.87 184.55Z" fill="#E4E4E4" fill-opacity="1.000000" fill-rule="nonzero"/>
		<path d="M77.37 194.35L77.24 134.29L77.74 134.29L77.72 123.24L77.22 123.24L77.18 104.8C77.18 104.11 77.05 103.43 76.81 102.79C76.57 102.16 76.22 101.58 75.77 101.1C75.33 100.61 74.8 100.22 74.22 99.96C73.64 99.7 73.02 99.57 72.4 99.57L36.91 99.66C36.28 99.66 35.66 99.8 35.09 100.07C34.51 100.33 33.98 100.72 33.54 101.21C33.1 101.7 32.75 102.27 32.51 102.91C32.27 103.55 32.15 104.23 32.15 104.92L32.18 117.78L31.39 117.8L31.56 125.52L32.2 125.51L32.2 127.21L31.53 127.23L31.7 134.95L32.22 134.94L32.35 194.47C32.35 195.16 32.47 195.84 32.71 196.48C32.95 197.11 33.31 197.69 33.75 198.18C34.2 198.66 34.72 199.05 35.3 199.31C35.88 199.57 36.5 199.7 37.13 199.7L72.62 199.61C73.88 199.6 75.09 199.05 75.98 198.06C76.87 197.07 77.37 195.74 77.37 194.35Z" fill="#3F3D56" fill-opacity="1.000000" fill-rule="nonzero"/>
		<path d="M36.04 197.3C35.6 197.12 35.22 196.8 34.95 196.38C34.68 195.96 34.53 195.45 34.53 194.94L34.33 104.44C34.33 103.77 34.57 103.13 35 102.66C35.42 102.19 36 101.92 36.61 101.92L44.16 101.9L44.07 102.16C43.9 102.6 43.84 103.07 43.89 103.55C43.93 104.02 44.08 104.47 44.32 104.86C44.57 105.26 44.89 105.58 45.27 105.8C45.66 106.03 46.08 106.14 46.51 106.14L63.27 106.1C63.69 106.06 64.09 105.91 64.45 105.67C64.8 105.42 65.1 105.09 65.32 104.7C65.53 104.31 65.66 103.87 65.69 103.42C65.72 102.97 65.66 102.52 65.5 102.1L65.4 101.85L73.2 101.82C73.81 101.82 74.39 102.09 74.82 102.56C75.25 103.03 75.49 103.67 75.49 104.33L75.68 190.67C75.69 192.44 75.05 194.14 73.92 195.39C72.78 196.64 71.24 197.35 69.64 197.36L36.82 197.44C36.56 197.44 36.29 197.39 36.04 197.3Z" fill="#FFFFFF" fill-opacity="1.000000" fill-rule="nonzero"/>
		<path d="M49.49 103.48C49.49 103.79 49.26 104.05 48.97 104.05C48.68 104.05 48.45 103.79 48.45 103.48C48.45 103.16 48.68 102.9 48.97 102.9C49.26 102.9 49.49 103.16 49.49 103.48Z" fill="#FFFFFF" fill-opacity="1.000000" fill-rule="evenodd"/>
		<path d="M69.05 131.86L42.09 131.86C41.9 131.86 41.72 131.78 41.59 131.63C41.46 131.48 41.38 131.28 41.38 131.08L41.38 119.05C41.38 118.84 41.46 118.64 41.59 118.5C41.72 118.35 41.9 118.27 42.09 118.27L69.05 118.27C69.24 118.27 69.42 118.35 69.55 118.5C69.69 118.64 69.76 118.84 69.76 119.05L69.76 131.08C69.76 131.28 69.69 131.48 69.55 131.63C69.42 131.78 69.24 131.86 69.05 131.86Z" fill="#6C63FF" fill-opacity="1.000000" fill-rule="nonzero"/>
		<path d="M66.49 137.63L44.66 137.63C44.55 137.63 44.44 137.61 44.33 137.56C44.23 137.51 44.14 137.44 44.06 137.36C43.98 137.27 43.92 137.17 43.87 137.05C43.83 136.94 43.81 136.82 43.81 136.69C43.81 136.57 43.83 136.45 43.87 136.34C43.92 136.22 43.98 136.12 44.06 136.03C44.14 135.95 44.23 135.88 44.33 135.83C44.44 135.78 44.55 135.76 44.66 135.76L66.49 135.76C67.58 135.74 67.59 137.65 66.49 137.63Z" fill="#E4E4E4" fill-opacity="1.000000" fill-rule="nonzero"/>
		<path d="M66.49 141.92L44.66 141.92C44.43 141.92 44.22 141.82 44.06 141.64C43.9 141.47 43.81 141.23 43.81 140.98C43.81 140.73 43.9 140.5 44.06 140.32C44.22 140.14 44.43 140.05 44.66 140.05L66.49 140.05C67.58 140.03 67.59 141.93 66.49 141.92Z" fill="#E4E4E4" fill-opacity="1.000000" fill-rule="nonzero"/>
		<path d="M66.49 146.2L44.66 146.2C44.55 146.2 44.44 146.18 44.33 146.13C44.23 146.09 44.14 146.02 44.06 145.93C43.98 145.84 43.92 145.74 43.87 145.63C43.83 145.51 43.81 145.39 43.81 145.27C43.81 145.14 43.83 145.02 43.87 144.91C43.92 144.8 43.98 144.69 44.06 144.61C44.14 144.52 44.23 144.45 44.33 144.4C44.44 144.36 44.55 144.33 44.66 144.33L66.49 144.33C67.58 144.32 67.59 146.22 66.49 146.2Z" fill="#E4E4E4" fill-opacity="1.000000" fill-rule="nonzero"/>
		<path d="M69.05 167.91L42.09 167.91C41.9 167.91 41.72 167.83 41.59 167.68C41.46 167.54 41.38 167.34 41.38 167.13L41.38 155.1C41.38 154.89 41.46 154.7 41.59 154.55C41.72 154.41 41.9 154.32 42.09 154.32L69.05 154.32C69.24 154.32 69.42 154.41 69.55 154.55C69.69 154.7 69.76 154.89 69.76 155.1L69.76 167.13C69.76 167.34 69.69 167.54 69.55 167.68C69.42 167.83 69.24 167.91 69.05 167.91Z" fill="#6C63FF" fill-opacity="1.000000" fill-rule="nonzero"/>
		<path d="M66.49 173.68L44.66 173.68C44.55 173.68 44.44 173.66 44.33 173.61C44.23 173.57 44.14 173.5 44.06 173.41C43.98 173.32 43.92 173.22 43.87 173.11C43.83 172.99 43.81 172.87 43.81 172.75C43.81 172.63 43.83 172.5 43.87 172.39C43.92 172.28 43.98 172.17 44.06 172.09C44.14 172 44.23 171.93 44.33 171.88C44.44 171.84 44.55 171.81 44.66 171.81L66.49 171.81C67.58 171.8 67.59 173.7 66.49 173.68Z" fill="#E4E4E4" fill-opacity="1.000000" fill-rule="nonzero"/>
		<path d="M66.49 177.97L44.66 177.97C44.43 177.97 44.22 177.87 44.06 177.7C43.9 177.52 43.81 177.28 43.81 177.04C43.81 176.79 43.9 176.55 44.06 176.37C44.22 176.2 44.43 176.1 44.66 176.1L66.49 176.1C67.58 176.08 67.59 177.99 66.49 177.97Z" fill="#E4E4E4" fill-opacity="1.000000" fill-rule="nonzero"/>
		<path d="M66.49 182.26L44.66 182.26C44.55 182.26 44.44 182.23 44.33 182.19C44.23 182.14 44.14 182.07 44.06 181.98C43.98 181.9 43.92 181.79 43.87 181.68C43.83 181.57 43.81 181.45 43.81 181.32C43.81 181.2 43.83 181.08 43.87 180.96C43.92 180.85 43.98 180.75 44.06 180.66C44.14 180.57 44.23 180.5 44.33 180.46C44.44 180.41 44.55 180.39 44.66 180.39L66.49 180.39C67.58 180.37 67.59 182.27 66.49 182.26Z" fill="#E4E4E4" fill-opacity="1.000000" fill-rule="nonzero"/>
		<path d="M8.78 196.41L11.71 196.41L13.11 183.99L8.78 183.99L8.78 196.41Z" fill="#A0616A" fill-opacity="1.000000" fill-rule="nonzero"/>
		<path d="M8.04 195.36L8.86 195.36L12.08 193.92L13.81 195.36L13.81 195.36C14.78 195.36 15.72 195.79 16.41 196.55C17.1 197.3 17.48 198.33 17.48 199.41L17.48 199.54L8.04 199.54L8.04 195.36Z" fill="#2F2E41" fill-opacity="1.000000" fill-rule="nonzero"/>
		<path d="M20.14 194.38L22.99 195.09L26.84 183.31L22.63 182.26L20.14 194.38Z" fill="#A0616A" fill-opacity="1.000000" fill-rule="nonzero"/>
		<path d="M19.62 193.18L20.42 193.38L23.85 192.75L25.25 194.57L25.25 194.57C26.2 194.81 27.02 195.45 27.55 196.36C28.07 197.27 28.24 198.36 28.02 199.41L28 199.54L18.78 197.25L19.62 193.18Z" fill="#2F2E41" fill-opacity="1.000000" fill-rule="nonzero"/>
		<path d="M5.07 120.44C3.7 124.99 3.85 129.94 5.4 135.25L6.07 165.13C6.07 165.13 5.08 184.73 8.28 191.63L12.93 191.63L15.23 163.34L15.51 144.36L25.47 160.37L19.13 191.16L24.85 191.72L35.14 158.31L22.44 125.9L5.07 120.44Z" fill="#2F2E41" fill-opacity="1.000000" fill-rule="nonzero"/>
		<path d="M23.27 126.85L6.38 123.88C5.94 123.73 5.53 123.47 5.19 123.12C4.84 122.77 4.57 122.35 4.39 121.88C4.21 121.41 4.12 120.9 4.14 120.39C4.15 119.88 4.27 119.38 4.48 118.92L5.24 117.23L4.95 99.53C4.91 97.23 5.43 94.95 6.44 92.94C7.46 90.93 8.94 89.24 10.74 88.06L12.38 86.97L13.22 84.65L20.89 84.86L20.91 87.9L23.66 92.73L23.66 92.75L23.49 118.99L22.73 121.69L23.88 124.84L23.27 126.85Z" fill="#3F3D56" fill-opacity="1.000000" fill-rule="nonzero"/>
		<path d="M24.73 74.09C24.73 78.32 21.61 81.76 17.76 81.76C13.91 81.76 10.78 78.32 10.78 74.09C10.78 69.85 13.91 66.42 17.76 66.42C21.61 66.42 24.73 69.85 24.73 74.09Z" fill="#FFB6B6" fill-opacity="1.000000" fill-rule="evenodd"/>
		<path d="M10.49 75.76C10.29 74.8 10.38 73.44 10.5 72.47C10.65 71.19 11.04 69.96 11.65 68.86C12.26 67.76 13.08 66.81 14.04 66.07C14.41 65.77 14.85 65.57 15.32 65.52C15.55 65.5 15.78 65.56 15.98 65.69C16.17 65.82 16.33 66.02 16.42 66.25C16.54 65.93 16.71 65.64 16.93 65.4C17.16 65.16 17.42 64.97 17.71 64.84C18.3 64.6 18.93 64.5 19.55 64.57C20.76 64.68 21.92 65.15 22.9 65.92C23.89 66.7 24.67 67.76 25.15 68.98C25.34 69.46 25.86 67.67 26.1 68.13C26.31 68.6 26.69 68.97 27.15 69.15C27.61 69.29 27.8 71.38 27.98 70.89C28.12 71.26 28.18 71.65 28.14 72.04C28.11 72.43 27.99 72.81 27.78 73.13C27.58 73.46 27.31 73.72 26.99 73.9C26.67 74.07 26.31 74.16 25.96 74.14C25.49 74.08 25.03 73.98 24.57 73.85C23.73 73.73 22.89 73.96 22.19 74.48C21.49 75.01 20.99 75.79 20.79 76.69C20.66 76.17 20.46 75.67 20.19 75.22C20.05 75 19.86 74.81 19.65 74.68C19.43 74.55 19.19 74.48 18.94 74.47C18.71 74.5 18.48 74.58 18.27 74.71C18.07 74.84 17.89 75.02 17.75 75.23C17.44 75.62 17.21 76.09 16.9 76.48C15.99 77.64 14.76 80.34 13.47 80.14C12.45 79.98 10.78 77.08 10.49 75.76Z" fill="#2F2E41" fill-opacity="1.000000" fill-rule="nonzero"/>
		<path d="M43.76 121.25C43.46 121.4 43.14 121.46 42.81 121.45C42.49 121.45 42.17 121.36 41.88 121.2C41.59 121.04 41.34 120.81 41.14 120.53C40.94 120.25 40.79 119.93 40.72 119.58L32.89 118.71L35.48 115.23L42.51 116.59C43.05 116.49 43.6 116.61 44.06 116.93C44.52 117.25 44.86 117.74 45.02 118.31C45.17 118.89 45.13 119.51 44.89 120.05C44.66 120.59 44.26 121.02 43.76 121.25Z" fill="#A0616A" fill-opacity="1.000000" fill-rule="nonzero"/>
		<path d="M38.94 119.87L20.68 118.02L20.65 117.99L7.32 101.19C6.44 99.71 6.11 97.92 6.4 96.18C6.68 94.45 7.56 92.89 8.85 91.84C9.56 91.26 10.38 90.86 11.25 90.65C12.12 90.45 13.01 90.44 13.88 90.65C14.75 90.85 15.57 91.25 16.29 91.83C17 92.4 17.6 93.14 18.04 93.99L26.25 109.84L39.14 115.54L38.94 119.87Z" fill="#3F3D56" fill-opacity="1.000000" fill-rule="nonzero"/>
		<path d="M281.65 200L0.34 200C0.25 200 0.16 199.94 0.1 199.85C0.03 199.76 0 199.63 0 199.5C0 199.36 0.03 199.24 0.1 199.14C0.16 199.05 0.25 199 0.34 199L281.65 199C281.74 199 281.83 199.05 281.89 199.14C281.96 199.24 282 199.36 282 199.5C282 199.63 281.96 199.76 281.89 199.85C281.83 199.94 281.74 200 281.65 200Z" fill="#CCCCCC" fill-opacity="1.000000" fill-rule="nonzero"/>
	</g>
</svg>
