<svg width="266.000000" height="200.000000" viewBox="0 0 266 200" fill="none" xmlns="http://www.w3.org/2000/svg" xmlns:xlink="http://www.w3.org/1999/xlink">
	<desc>
			Created with Pixso.
	</desc>
	<defs>
		<clipPath id="clip2_100">
			<rect width="266.000000" height="200.000000" fill="white" fill-opacity="0"/>
		</clipPath>
	</defs>
	<rect width="266.000000" height="200.000000" fill="#FFFFFF" fill-opacity="0"/>
	<g clip-path="url(#clip2_100)">
		<path d="M228.57 17.55C228.19 17.37 227.81 17.2 227.43 17.02C216.4 11.91 204.59 7.76 192.22 4.66L189.36 33.3L171.18 33.3L171.18 0.48C170.04 0.31 168.89 0.15 167.73 0L167.73 33.3L146.14 33.3C134.25 33.3 122.85 29.88 114.44 23.79C106.03 17.7 101.31 9.45 101.31 0.84C100.15 1.02 99 1.21 97.85 1.42L97.85 33.3L80.26 33.3L77.53 5.99C64.83 9.52 52.76 14.16 41.61 19.81C41.42 19.9 41.23 20 41.04 20.1C40.07 20.59 39.12 21.09 38.16 21.6L38.16 130.85L90.01 130.85L89.09 121.66L84.05 71.21L185.57 71.21L180.52 121.66L179.61 130.85L230.88 130.85L230.88 18.66C230.11 18.28 229.35 17.92 228.57 17.55ZM97.85 62.87L83.22 62.87L80.51 35.8L97.85 35.8L97.85 62.87ZM167.73 62.87L143.15 62.87L143.15 62.34C143.15 62.08 143.08 61.82 142.95 61.59C142.81 61.35 142.61 61.13 142.36 60.95C142.1 60.77 141.81 60.62 141.48 60.52C141.15 60.43 140.79 60.37 140.44 60.38L129.75 60.38C129.39 60.38 129.04 60.43 128.71 60.52C128.39 60.62 128.09 60.77 127.84 60.95C127.58 61.13 127.38 61.35 127.25 61.59C127.11 61.82 127.04 62.08 127.04 62.34L127.04 62.87L101.31 62.87L101.31 35.8L167.73 35.8L167.73 62.87ZM171.18 62.87L171.18 35.8L189.11 35.8L186.4 62.87L171.18 62.87Z" fill="#F2F2F2" fill-opacity="1.000000" fill-rule="nonzero"/>
		<path d="M254.03 184.72L254.31 178.84C257.22 177.38 260.47 176.61 263.77 176.59C259.23 180.07 259.79 186.78 256.72 191.47C255.74 192.92 254.44 194.15 252.89 195.06C251.34 195.98 249.59 196.55 247.77 196.75L243.97 198.93C243.45 196.21 243.57 193.41 244.31 190.73C245.05 188.04 246.41 185.55 248.28 183.41C249.34 182.21 250.56 181.15 251.91 180.25C252.82 182.5 254.03 184.72 254.03 184.72Z" fill="#F2F2F2" fill-opacity="1.000000" fill-rule="nonzero"/>
		<path d="M58.42 177.83L49.61 175.12C48.46 170.36 48.47 165.39 49.64 160.63C53.26 168.53 63.62 170.34 69.59 176.6C71.44 178.57 72.83 180.94 73.65 183.52C74.48 186.11 74.72 188.85 74.36 191.54L76.28 197.87C71.97 197.55 67.78 196.29 63.99 194.17C60.2 192.05 56.91 189.13 54.35 185.59C52.93 183.6 51.76 181.43 50.88 179.14C54.61 178.71 58.42 177.83 58.42 177.83Z" fill="#F2F2F2" fill-opacity="1.000000" fill-rule="nonzero"/>
		<path d="M246.76 198.24C246.76 198.43 246.68 198.6 246.56 198.73C246.49 198.79 246.42 198.85 246.33 198.88C246.25 198.91 246.16 198.93 246.07 198.93L243.32 198.93C243.23 198.93 243.14 198.91 243.06 198.88C242.97 198.84 242.9 198.79 242.83 198.73C242.77 198.67 242.72 198.59 242.69 198.51C242.65 198.42 242.63 198.33 242.63 198.24L242.63 114.39C242.63 112.55 242.02 111.05 241.26 111.04L34.84 111.04C34.08 111.05 33.47 112.55 33.46 114.39L33.46 197.73C33.46 197.9 33.4 198.06 33.28 198.19C33.17 198.32 33.01 198.4 32.84 198.41C32.29 198.47 31.73 198.52 31.18 198.56C31.17 198.56 31.15 198.57 31.14 198.57C30.84 198.59 30.54 198.61 30.24 198.64L30.23 198.64C30.07 198.35 29.92 198.06 29.77 197.77C29.72 197.67 29.69 197.56 29.69 197.44L29.69 110.05C29.69 109.54 29.71 109.02 29.75 108.51C29.8 107.82 29.88 107.13 30.01 106.44C30.59 103.24 31.89 101.07 33.38 101.06L242.72 101.06C242.93 101.06 243.15 101.11 243.35 101.19C243.64 101.32 243.9 101.51 244.12 101.74C244.42 102.06 244.68 102.41 244.89 102.79C245.62 104.09 246.15 106.03 246.33 108.29C246.33 108.31 246.33 108.33 246.33 108.35C246.38 108.91 246.41 109.48 246.4 110.05L246.45 117.44L246.48 121.84L246.57 135.67L246.61 140.58L246.76 198.24Z" fill="#E6E6E6" fill-opacity="1.000000" fill-rule="nonzero"/>
		<path d="M265.41 199.87L170.93 200C170.82 200 170.72 199.95 170.64 199.86C170.56 199.77 170.52 199.65 170.52 199.52C170.52 199.4 170.56 199.28 170.64 199.19C170.72 199.1 170.82 199.05 170.93 199.05L265.41 198.93C265.52 198.93 265.62 198.98 265.7 199.07C265.78 199.16 265.82 199.28 265.82 199.4C265.82 199.53 265.78 199.65 265.7 199.74C265.62 199.82 265.52 199.87 265.41 199.87Z" fill="#CACACA" fill-opacity="1.000000" fill-rule="nonzero"/>
		<path d="M148.42 76.59L131.2 76.59C130.96 76.59 130.73 76.69 130.55 76.86C130.38 77.03 130.28 77.26 130.28 77.5L130.28 104.25L149.34 104.25L149.34 77.5C149.34 77.38 149.32 77.26 149.27 77.15C149.23 77.04 149.16 76.94 149.08 76.86C148.99 76.77 148.89 76.7 148.78 76.66C148.67 76.61 148.55 76.59 148.42 76.59ZM139.87 91.79C139.33 91.79 138.82 91.58 138.44 91.2C138.06 90.83 137.84 90.32 137.84 89.79L137.84 86.71C137.84 86.18 138.05 85.67 138.43 85.29C138.82 84.92 139.33 84.71 139.87 84.71C140.41 84.71 140.93 84.92 141.31 85.29C141.69 85.67 141.91 86.18 141.91 86.71L141.91 89.79C141.9 90.32 141.69 90.83 141.31 91.2C140.93 91.58 140.41 91.79 139.87 91.79Z" fill="#2F2E41" fill-opacity="1.000000" fill-rule="nonzero"/>
		<path d="M175.61 35.1L104.02 35.1C103.4 35.1 102.81 35.35 102.38 35.79C101.94 36.22 101.7 36.81 101.7 37.43L101.7 85.96C101.7 86.58 101.94 87.17 102.38 87.61C102.81 88.05 103.4 88.29 104.02 88.29L175.61 88.29C176.23 88.29 176.82 88.05 177.25 87.61C177.69 87.17 177.93 86.58 177.93 85.96L177.93 37.43C177.93 36.81 177.69 36.22 177.25 35.79C176.82 35.35 176.23 35.1 175.61 35.1Z" fill="#3F3D56" fill-opacity="1.000000" fill-rule="nonzero"/>
		<path d="M175.63 37.23L105.06 37.23C104.73 37.23 104.41 37.36 104.18 37.59C103.95 37.82 103.81 38.13 103.81 38.46L103.81 84.94C103.81 85.27 103.95 85.58 104.18 85.81C104.41 86.04 104.73 86.16 105.06 86.17L175.63 86.17C175.96 86.16 176.28 86.04 176.51 85.81C176.74 85.58 176.87 85.27 176.87 84.94L176.87 38.46C176.87 38.13 176.74 37.82 176.51 37.59C176.28 37.36 175.96 37.23 175.63 37.23Z" fill="#FFFFFF" fill-opacity="1.000000" fill-rule="nonzero"/>
		<path d="M130.28 103.19L130.28 105.86C130.28 106 130.34 106.13 130.44 106.23C130.53 106.32 130.66 106.38 130.8 106.38L148.83 106.38C148.97 106.38 149.1 106.32 149.19 106.23C149.29 106.13 149.34 106 149.34 105.86L149.34 103.19L130.28 103.19Z" fill="#3F3D56" fill-opacity="1.000000" fill-rule="nonzero"/>
		<path d="M161.28 107.44L119.41 107.44C119.29 107.44 119.18 107.41 119.08 107.36C118.97 107.3 118.88 107.22 118.81 107.12C118.74 107.01 118.69 106.89 118.66 106.77C118.63 106.64 118.63 106.5 118.65 106.37L119.3 102.83C119.34 102.63 119.44 102.45 119.57 102.32C119.71 102.19 119.88 102.12 120.06 102.12L160.63 102.12C160.81 102.12 160.98 102.19 161.12 102.32C161.25 102.45 161.35 102.63 161.38 102.83L162.03 106.37C162.06 106.5 162.06 106.64 162.03 106.77C162 106.89 161.95 107.01 161.88 107.12C161.81 107.22 161.72 107.3 161.61 107.36C161.51 107.41 161.39 107.44 161.28 107.44Z" fill="#2F2E41" fill-opacity="1.000000" fill-rule="nonzero"/>
		<path d="M120.89 103.19L121.68 103.19C121.75 103.19 121.81 103.29 121.81 103.42L121.81 104.02C121.81 104.15 121.75 104.25 121.68 104.25L120.89 104.25C120.82 104.25 120.76 104.15 120.76 104.02L120.76 103.42C120.76 103.29 120.82 103.19 120.89 103.19Z" fill="#3F3D56" fill-opacity="1.000000" fill-rule="evenodd"/>
		<path d="M123.01 103.19L123.8 103.19C123.87 103.19 123.93 103.29 123.93 103.42L123.93 104.02C123.93 104.15 123.87 104.25 123.8 104.25L123.01 104.25C122.93 104.25 122.87 104.15 122.87 104.02L122.87 103.42C122.87 103.29 122.93 103.19 123.01 103.19Z" fill="#3F3D56" fill-opacity="1.000000" fill-rule="evenodd"/>
		<path d="M126.19 103.19L126.97 103.19C127.05 103.19 127.11 103.29 127.11 103.42L127.11 104.02C127.11 104.15 127.05 104.25 126.97 104.25L126.19 104.25C126.11 104.25 126.05 104.15 126.05 104.02L126.05 103.42C126.05 103.29 126.11 103.19 126.19 103.19Z" fill="#3F3D56" fill-opacity="1.000000" fill-rule="evenodd"/>
		<path d="M128.31 103.19L129.09 103.19C129.17 103.19 129.23 103.29 129.23 103.42L129.23 104.02C129.23 104.15 129.17 104.25 129.09 104.25L128.31 104.25C128.23 104.25 128.17 104.15 128.17 104.02L128.17 103.42C128.17 103.29 128.23 103.19 128.31 103.19Z" fill="#3F3D56" fill-opacity="1.000000" fill-rule="evenodd"/>
		<path d="M130.56 103.19L132.13 103.19C132.28 103.19 132.4 103.29 132.4 103.42L132.4 104.02C132.4 104.15 132.28 104.25 132.13 104.25L130.56 104.25C130.41 104.25 130.28 104.15 130.28 104.02L130.28 103.42C130.28 103.29 130.41 103.19 130.56 103.19Z" fill="#3F3D56" fill-opacity="1.000000" fill-rule="evenodd"/>
		<path d="M133.6 103.19L134.38 103.19C134.46 103.19 134.52 103.29 134.52 103.42L134.52 104.02C134.52 104.15 134.46 104.25 134.38 104.25L133.6 104.25C133.52 104.25 133.46 104.15 133.46 104.02L133.46 103.42C133.46 103.29 133.52 103.19 133.6 103.19Z" fill="#3F3D56" fill-opacity="1.000000" fill-rule="evenodd"/>
		<path d="M135.85 103.19L137.42 103.19C137.57 103.19 137.7 103.29 137.7 103.42L137.7 104.02C137.7 104.15 137.57 104.25 137.42 104.25L135.85 104.25C135.7 104.25 135.58 104.15 135.58 104.02L135.58 103.42C135.58 103.29 135.7 103.19 135.85 103.19Z" fill="#3F3D56" fill-opacity="1.000000" fill-rule="evenodd"/>
		<path d="M138.89 103.19L139.68 103.19C139.75 103.19 139.81 103.29 139.81 103.42L139.81 104.02C139.81 104.15 139.75 104.25 139.68 104.25L138.89 104.25C138.82 104.25 138.76 104.15 138.76 104.02L138.76 103.42C138.76 103.29 138.82 103.19 138.89 103.19Z" fill="#3F3D56" fill-opacity="1.000000" fill-rule="evenodd"/>
		<path d="M141.01 103.19L141.8 103.19C141.87 103.19 141.93 103.29 141.93 103.42L141.93 104.02C141.93 104.15 141.87 104.25 141.8 104.25L141.01 104.25C140.94 104.25 140.87 104.15 140.87 104.02L140.87 103.42C140.87 103.29 140.94 103.19 141.01 103.19Z" fill="#3F3D56" fill-opacity="1.000000" fill-rule="evenodd"/>
		<path d="M144.19 103.19L144.97 103.19C145.05 103.19 145.11 103.29 145.11 103.42L145.11 104.02C145.11 104.15 145.05 104.25 144.97 104.25L144.19 104.25C144.11 104.25 144.05 104.15 144.05 104.02L144.05 103.42C144.05 103.29 144.11 103.19 144.19 103.19Z" fill="#3F3D56" fill-opacity="1.000000" fill-rule="evenodd"/>
		<path d="M146.31 103.19L147.09 103.19C147.17 103.19 147.23 103.29 147.23 103.42L147.23 104.02C147.23 104.15 147.17 104.25 147.09 104.25L146.31 104.25C146.23 104.25 146.17 104.15 146.17 104.02L146.17 103.42C146.17 103.29 146.23 103.19 146.31 103.19Z" fill="#3F3D56" fill-opacity="1.000000" fill-rule="evenodd"/>
		<path d="M148.56 103.19L150.13 103.19C150.28 103.19 150.4 103.29 150.4 103.42L150.4 104.02C150.4 104.15 150.28 104.25 150.13 104.25L148.56 104.25C148.41 104.25 148.28 104.15 148.28 104.02L148.28 103.42C148.28 103.29 148.41 103.19 148.56 103.19Z" fill="#3F3D56" fill-opacity="1.000000" fill-rule="evenodd"/>
		<path d="M151.6 103.19L152.38 103.19C152.46 103.19 152.52 103.29 152.52 103.42L152.52 104.02C152.52 104.15 152.46 104.25 152.38 104.25L151.6 104.25C151.52 104.25 151.46 104.15 151.46 104.02L151.46 103.42C151.46 103.29 151.52 103.19 151.6 103.19Z" fill="#3F3D56" fill-opacity="1.000000" fill-rule="evenodd"/>
		<path d="M153.85 103.19L155.42 103.19C155.57 103.19 155.7 103.29 155.7 103.42L155.7 104.02C155.7 104.15 155.57 104.25 155.42 104.25L153.85 104.25C153.7 104.25 153.58 104.15 153.58 104.02L153.58 103.42C153.58 103.29 153.7 103.19 153.85 103.19Z" fill="#3F3D56" fill-opacity="1.000000" fill-rule="evenodd"/>
		<path d="M156.89 103.19L157.68 103.19C157.75 103.19 157.81 103.29 157.81 103.42L157.81 104.02C157.81 104.15 157.75 104.25 157.68 104.25L156.89 104.25C156.82 104.25 156.76 104.15 156.76 104.02L156.76 103.42C156.76 103.29 156.82 103.19 156.89 103.19Z" fill="#3F3D56" fill-opacity="1.000000" fill-rule="evenodd"/>
		<path d="M159.01 103.19L159.8 103.19C159.87 103.19 159.93 103.29 159.93 103.42L159.93 104.02C159.93 104.15 159.87 104.25 159.8 104.25L159.01 104.25C158.94 104.25 158.87 104.15 158.87 104.02L158.87 103.42C158.87 103.29 158.94 103.19 159.01 103.19Z" fill="#3F3D56" fill-opacity="1.000000" fill-rule="evenodd"/>
		<path d="M120.89 104.25L121.68 104.25C121.75 104.25 121.81 104.35 121.81 104.48L121.81 105.09C121.81 105.21 121.75 105.32 121.68 105.32L120.89 105.32C120.82 105.32 120.76 105.21 120.76 105.09L120.76 104.48C120.76 104.35 120.82 104.25 120.89 104.25Z" fill="#3F3D56" fill-opacity="1.000000" fill-rule="evenodd"/>
		<path d="M123.01 104.25L123.8 104.25C123.87 104.25 123.93 104.35 123.93 104.48L123.93 105.09C123.93 105.21 123.87 105.32 123.8 105.32L123.01 105.32C122.93 105.32 122.87 105.21 122.87 105.09L122.87 104.48C122.87 104.35 122.93 104.25 123.01 104.25Z" fill="#3F3D56" fill-opacity="1.000000" fill-rule="evenodd"/>
		<path d="M126.19 104.25L126.97 104.25C127.05 104.25 127.11 104.35 127.11 104.48L127.11 105.09C127.11 105.21 127.05 105.32 126.97 105.32L126.19 105.32C126.11 105.32 126.05 105.21 126.05 105.09L126.05 104.48C126.05 104.35 126.11 104.25 126.19 104.25Z" fill="#3F3D56" fill-opacity="1.000000" fill-rule="evenodd"/>
		<path d="M128.31 104.25L129.09 104.25C129.17 104.25 129.23 104.35 129.23 104.48L129.23 105.09C129.23 105.21 129.17 105.32 129.09 105.32L128.31 105.32C128.23 105.32 128.17 105.21 128.17 105.09L128.17 104.48C128.17 104.35 128.23 104.25 128.31 104.25Z" fill="#3F3D56" fill-opacity="1.000000" fill-rule="evenodd"/>
		<path d="M130.56 104.25L132.13 104.25C132.28 104.25 132.4 104.35 132.4 104.48L132.4 105.08C132.4 105.21 132.28 105.31 132.13 105.31L130.56 105.31C130.41 105.31 130.28 105.21 130.28 105.08L130.28 104.48C130.28 104.35 130.41 104.25 130.56 104.25Z" fill="#3F3D56" fill-opacity="1.000000" fill-rule="evenodd"/>
		<path d="M133.6 104.25L134.38 104.25C134.46 104.25 134.52 104.35 134.52 104.48L134.52 105.09C134.52 105.21 134.46 105.32 134.38 105.32L133.6 105.32C133.52 105.32 133.46 105.21 133.46 105.09L133.46 104.48C133.46 104.35 133.52 104.25 133.6 104.25Z" fill="#3F3D56" fill-opacity="1.000000" fill-rule="evenodd"/>
		<path d="M135.72 104.25L136.5 104.25C136.58 104.25 136.64 104.35 136.64 104.48L136.64 105.08C136.64 105.21 136.58 105.31 136.5 105.31L135.72 105.31C135.64 105.31 135.58 105.21 135.58 105.08L135.58 104.48C135.58 104.35 135.64 104.25 135.72 104.25Z" fill="#3F3D56" fill-opacity="1.000000" fill-rule="evenodd"/>
		<path d="M138.89 104.25L139.68 104.25C139.75 104.25 139.81 104.35 139.81 104.48L139.81 105.08C139.81 105.21 139.75 105.31 139.68 105.31L138.89 105.31C138.82 105.31 138.76 105.21 138.76 105.08L138.76 104.48C138.76 104.35 138.82 104.25 138.89 104.25Z" fill="#3F3D56" fill-opacity="1.000000" fill-rule="evenodd"/>
		<path d="M141.01 104.25L141.8 104.25C141.87 104.25 141.93 104.35 141.93 104.48L141.93 105.09C141.93 105.21 141.87 105.32 141.8 105.32L141.01 105.32C140.94 105.32 140.87 105.21 140.87 105.09L140.87 104.48C140.87 104.35 140.94 104.25 141.01 104.25Z" fill="#3F3D56" fill-opacity="1.000000" fill-rule="evenodd"/>
		<path d="M144.19 104.25L144.97 104.25C145.05 104.25 145.11 104.35 145.11 104.48L145.11 105.09C145.11 105.21 145.05 105.32 144.97 105.32L144.19 105.32C144.11 105.32 144.05 105.21 144.05 105.09L144.05 104.48C144.05 104.35 144.11 104.25 144.19 104.25Z" fill="#3F3D56" fill-opacity="1.000000" fill-rule="evenodd"/>
		<path d="M146.31 104.25L147.09 104.25C147.17 104.25 147.23 104.35 147.23 104.48L147.23 105.09C147.23 105.21 147.17 105.32 147.09 105.32L146.31 105.32C146.23 105.32 146.17 105.21 146.17 105.09L146.17 104.48C146.17 104.35 146.23 104.25 146.31 104.25Z" fill="#3F3D56" fill-opacity="1.000000" fill-rule="evenodd"/>
		<path d="M148.56 104.25L150.13 104.25C150.28 104.25 150.4 104.35 150.4 104.48L150.4 105.08C150.4 105.21 150.28 105.31 150.13 105.31L148.56 105.31C148.41 105.31 148.28 105.21 148.28 105.08L148.28 104.48C148.28 104.35 148.41 104.25 148.56 104.25Z" fill="#3F3D56" fill-opacity="1.000000" fill-rule="evenodd"/>
		<path d="M151.6 104.25L152.38 104.25C152.46 104.25 152.52 104.35 152.52 104.48L152.52 105.08C152.52 105.21 152.46 105.31 152.38 105.31L151.6 105.31C151.52 105.31 151.46 105.21 151.46 105.08L151.46 104.48C151.46 104.35 151.52 104.25 151.6 104.25Z" fill="#3F3D56" fill-opacity="1.000000" fill-rule="evenodd"/>
		<path d="M153.85 104.25L155.42 104.25C155.57 104.25 155.7 104.35 155.7 104.48L155.7 105.08C155.7 105.21 155.57 105.31 155.42 105.31L153.85 105.31C153.7 105.31 153.58 105.21 153.58 105.08L153.58 104.48C153.58 104.35 153.7 104.25 153.85 104.25Z" fill="#3F3D56" fill-opacity="1.000000" fill-rule="evenodd"/>
		<path d="M156.89 104.25L157.68 104.25C157.75 104.25 157.81 104.35 157.81 104.48L157.81 105.08C157.81 105.21 157.75 105.31 157.68 105.31L156.89 105.31C156.82 105.31 156.76 105.21 156.76 105.08L156.76 104.48C156.76 104.35 156.82 104.25 156.89 104.25Z" fill="#3F3D56" fill-opacity="1.000000" fill-rule="evenodd"/>
		<path d="M159.01 104.25L159.8 104.25C159.87 104.25 159.93 104.35 159.93 104.48L159.93 105.09C159.93 105.21 159.87 105.32 159.8 105.32L159.01 105.32C158.94 105.32 158.87 105.21 158.87 105.09L158.87 104.48C158.87 104.35 158.94 104.25 159.01 104.25Z" fill="#3F3D56" fill-opacity="1.000000" fill-rule="evenodd"/>
		<path d="M132.57 106.38L142.82 106.38C142.91 106.38 142.99 106.38 142.99 106.38L142.99 106.38C142.99 106.38 142.91 106.38 142.82 106.38L132.57 106.38C132.48 106.38 132.4 106.38 132.4 106.38L132.4 106.38C132.4 106.38 132.48 106.38 132.57 106.38Z" fill="#3F3D56" fill-opacity="1.000000" fill-rule="evenodd"/>
		<path d="M171.32 43.61L105.13 43.61C105.06 43.61 105 43.55 104.95 43.45C104.9 43.35 104.87 43.22 104.87 43.08C104.87 42.94 104.9 42.81 104.95 42.71C105 42.61 105.06 42.55 105.13 42.55L171.32 42.55C171.39 42.55 171.46 42.61 171.51 42.71C171.55 42.81 171.58 42.94 171.58 43.08C171.58 43.22 171.55 43.35 171.51 43.45C171.46 43.55 171.39 43.61 171.32 43.61Z" fill="#CACACA" fill-opacity="1.000000" fill-rule="nonzero"/>
		<path d="M111.23 39.89C111.23 40.77 110.51 41.48 109.64 41.48C108.76 41.48 108.05 40.77 108.05 39.89C108.05 39.01 108.76 38.29 109.64 38.29C110.51 38.29 111.23 39.01 111.23 39.89Z" fill="#3F3D56" fill-opacity="1.000000" fill-rule="evenodd"/>
		<path d="M116.52 39.89C116.52 40.77 115.81 41.48 114.93 41.48C114.05 41.48 113.34 40.77 113.34 39.89C113.34 39.01 114.05 38.29 114.93 38.29C115.81 38.29 116.52 39.01 116.52 39.89Z" fill="#3F3D56" fill-opacity="1.000000" fill-rule="evenodd"/>
		<path d="M121.81 39.89C121.81 40.77 121.34 41.48 120.76 41.48C120.17 41.48 119.7 40.77 119.7 39.89C119.7 39.01 120.17 38.29 120.76 38.29C121.34 38.29 121.81 39.01 121.81 39.89Z" fill="#3F3D56" fill-opacity="1.000000" fill-rule="evenodd"/>
		<path d="M168.13 38.29L164.44 38.29C164.37 38.3 164.3 38.35 164.25 38.45C164.2 38.55 164.17 38.69 164.17 38.82C164.17 38.96 164.2 39.1 164.25 39.2C164.3 39.3 164.37 39.35 164.44 39.36L168.13 39.36C168.2 39.35 168.27 39.3 168.32 39.2C168.37 39.1 168.4 38.96 168.4 38.82C168.4 38.69 168.37 38.55 168.32 38.45C168.27 38.35 168.2 38.3 168.13 38.29Z" fill="#3F3D56" fill-opacity="1.000000" fill-rule="nonzero"/>
		<path d="M168.13 39.36L164.44 39.36C164.37 39.36 164.3 39.42 164.25 39.52C164.2 39.62 164.17 39.75 164.17 39.89C164.17 40.03 164.2 40.16 164.25 40.26C164.3 40.36 164.37 40.42 164.44 40.42L168.13 40.42C168.2 40.42 168.27 40.36 168.32 40.26C168.37 40.16 168.4 40.03 168.4 39.89C168.4 39.75 168.37 39.62 168.32 39.52C168.27 39.42 168.2 39.36 168.13 39.36Z" fill="#3F3D56" fill-opacity="1.000000" fill-rule="nonzero"/>
		<path d="M168.13 40.42L164.44 40.42C164.37 40.42 164.3 40.48 164.25 40.58C164.2 40.68 164.17 40.81 164.17 40.95C164.17 41.09 164.2 41.22 164.25 41.32C164.3 41.42 164.37 41.48 164.44 41.48L168.13 41.48C168.2 41.48 168.27 41.42 168.32 41.32C168.37 41.22 168.4 41.09 168.4 40.95C168.4 40.81 168.37 40.68 168.32 40.58C168.27 40.48 168.2 40.42 168.13 40.42Z" fill="#3F3D56" fill-opacity="1.000000" fill-rule="nonzero"/>
		<path d="M135.65 58.51L143.98 58.51C144.6 58.51 145.11 58.98 145.11 59.57L145.11 59.57C145.11 60.16 144.6 60.63 143.98 60.63L135.65 60.63C135.03 60.63 134.52 60.16 134.52 59.57L134.52 59.57C134.52 58.98 135.03 58.51 135.65 58.51Z" fill="#6C63FF" fill-opacity="1.000000" fill-rule="evenodd"/>
		<path d="M130.35 62.76L149.28 62.76C149.9 62.76 150.4 63.48 150.4 64.36L150.4 64.36C150.4 65.24 149.9 65.95 149.28 65.95L130.35 65.95C129.73 65.95 129.23 65.24 129.23 64.36L129.23 64.36C129.23 63.48 129.73 62.76 130.35 62.76Z" fill="#E6E6E6" fill-opacity="1.000000" fill-rule="evenodd"/>
		<path d="M130.35 68.08L149.28 68.08C149.9 68.08 150.4 68.56 150.4 69.14C150.4 69.73 149.9 70.21 149.28 70.21L130.35 70.21C129.73 70.21 129.23 69.73 129.23 69.14C129.23 68.56 129.73 68.08 130.35 68.08Z" fill="#E6E6E6" fill-opacity="1.000000" fill-rule="evenodd"/>
		<path d="M106.32 110.63L85.42 110.63C84.68 110.63 83.98 110.92 83.45 111.43C82.93 111.94 82.64 112.64 82.64 113.36C82.64 114.08 82.93 114.78 83.45 115.29C83.98 115.8 84.68 116.09 85.42 116.09L93.09 116.09L93.09 137.23L98.66 137.23L98.66 116.09L106.32 116.09C107.06 116.09 107.77 115.8 108.29 115.29C108.81 114.78 109.11 114.08 109.11 113.36C109.11 112.64 108.81 111.94 108.29 111.43C107.77 110.92 107.06 110.63 106.32 110.63Z" fill="#3F3D56" fill-opacity="1.000000" fill-rule="nonzero"/>
		<path d="M119.92 148.93L64.92 148.93C59.59 148.91 54.45 146.98 50.42 143.47C46.4 139.97 43.78 135.14 43.02 129.87L41.08 122.71C37.05 107.87 30.91 93.69 22.85 80.59C19.17 74.61 17.27 68.82 21.58 63.25C21.62 63.2 21.65 63.16 21.69 63.11C25.14 58.62 42.33 57.64 47.93 57.45C48.15 57.45 48.37 57.44 48.6 57.44L82.8 57.44C83.02 57.44 83.25 57.45 83.47 57.45C86.49 57.54 89.43 58.44 91.98 60.07C94.52 61.69 96.59 63.98 97.94 66.68C99.39 69.43 100.06 72.53 99.89 75.64C99.71 78.75 98.7 81.75 96.96 84.33C84.95 102.38 81.27 113.7 85.03 121.03C88.68 128.12 99.84 131.74 120.18 132.43C125.64 132.62 128.15 136.87 128.17 140.75C128.18 144.52 125.77 148.69 120.44 148.92C120.27 148.93 120.09 148.93 119.92 148.93Z" fill="#3F3D56" fill-opacity="1.000000" fill-rule="nonzero"/>
		<path d="M73.78 198.93L94.67 198.93C95.41 198.93 96.12 198.64 96.64 198.12C97.17 197.6 97.46 196.9 97.46 196.17C97.46 195.44 97.17 194.73 96.64 194.22C96.12 193.7 95.41 193.41 94.67 193.41L87.01 193.41L87.01 146.8L81.44 146.8L81.44 193.41L73.78 193.41C73.04 193.41 72.33 193.7 71.81 194.22C71.28 194.73 70.99 195.44 70.99 196.17C70.99 196.9 71.28 197.6 71.81 198.12C72.33 198.64 73.04 198.93 73.78 198.93Z" fill="#3F3D56" fill-opacity="1.000000" fill-rule="nonzero"/>
		<path d="M72.1 59.02L72.52 61.72C72.72 63.04 73.45 72.29 72.91 73.4C72.86 71.34 69.19 68.09 66.81 68.83L63.08 69.7L60.76 70.24L58.87 70.67L53.39 71.93C53.38 71.86 53.37 71.79 53.36 71.72C53.35 71.64 53.34 71.55 53.32 71.47C53.22 70.93 53.03 70.42 52.77 69.94C52.74 70.58 52.56 71.2 52.25 71.74C52.24 71.76 52.23 71.77 52.22 71.79C52.13 71.95 52.02 72.11 51.9 72.26C51.9 72.26 51.89 72.27 51.89 72.27C51.89 72.27 50.76 53.5 50.88 53.32C50.97 53.2 51.05 53.08 51.14 52.96C51.23 52.84 51.32 52.73 51.42 52.61C51.43 52.6 51.44 52.58 51.45 52.57C51.71 52.24 51.99 51.93 52.29 51.63C52.37 51.55 52.46 51.46 52.55 51.37C53.92 50.04 55.56 49.05 57.35 48.48C57.55 48.41 57.76 48.35 57.97 48.29C58.18 48.24 58.4 48.18 58.61 48.14L58.68 48.12C58.79 48.1 58.89 48.08 59 48.06C59.13 48.04 59.26 48.02 59.38 48C61.05 47.75 62.74 47.85 64.36 48.29C64.37 48.29 64.37 48.3 64.37 48.3C65.72 48.67 67.01 49.27 68.18 50.07C70.21 51.47 71 53.75 71.55 56.31C71.75 57.19 71.92 58.1 72.1 59.02Z" fill="#2F2E41" fill-opacity="1.000000" fill-rule="nonzero"/>
		<path d="M93.23 179.97L96.71 181.91L105.93 168.82L100.79 165.95L93.23 179.97Z" fill="#FFB6B6" fill-opacity="1.000000" fill-rule="nonzero"/>
		<path d="M94.54 175.53L101.1 177.53L100.05 180.2L104.55 186.56C104.77 186.87 104.88 187.24 104.87 187.62C104.86 188.01 104.72 188.37 104.48 188.67C104.24 188.97 103.91 189.19 103.53 189.29C103.15 189.39 102.75 189.38 102.39 189.24L94.75 186.42L94.47 183.28L92.93 185.74L90.05 184.67L94.54 175.53Z" fill="#2F2E41" fill-opacity="1.000000" fill-rule="nonzero"/>
		<path d="M112.39 121.16C111.82 121.3 111.24 121.31 110.67 121.2C110.1 121.08 109.56 120.85 109.09 120.51C108.63 120.17 108.24 119.73 107.96 119.23C107.68 118.72 107.52 118.17 107.49 117.59L77.34 106.88L82.87 102.12L111.48 113.38C112.46 113.38 113.4 113.74 114.13 114.38C114.86 115.03 115.32 115.91 115.44 116.87C115.55 117.83 115.3 118.8 114.74 119.59C114.18 120.38 113.34 120.94 112.39 121.16Z" fill="#FFB6B6" fill-opacity="1.000000" fill-rule="nonzero"/>
		<path d="M69.21 79.78C69.21 79.78 64.05 79.9 63.59 85.75C63.13 91.61 74.38 106.1 76.13 108.49C77.87 110.88 97.23 113.83 97.23 113.83L103.81 109.07C96.9 104.61 90.59 101.19 86.35 101.34L69.21 79.78Z" fill="#6C63FF" fill-opacity="1.000000" fill-rule="nonzero"/>
		<path d="M62.52 105.75L63.77 111.02C63.77 111.02 63.79 115.87 64.67 116.77C65.54 117.66 84.75 115.87 84.75 115.87C84.75 115.87 82.72 108.04 82.74 102.12L62.52 105.75Z" fill="#FFB6B6" fill-opacity="1.000000" fill-rule="nonzero"/>
		<path d="M103.01 174.46L96.09 170.63C95.96 161.57 101.37 149.3 107.79 136.45C93.43 138.94 79.88 139.73 68.16 136.72C66.24 136.21 64.59 134.96 63.58 133.24C62.56 131.51 62.26 129.45 62.74 127.51C62.79 127.32 62.84 127.13 62.9 126.94C64.3 122.63 61.16 119.93 64.05 115.19C71.66 112.57 78.89 111.84 85.5 114.15L89.64 123.37L110.16 120.69C111.16 120.57 112.16 120.65 113.12 120.93C114.08 121.2 114.98 121.66 115.76 122.29C116.55 122.91 117.2 123.69 117.68 124.57C118.17 125.45 118.47 126.41 118.58 127.41C118.61 127.64 118.63 127.86 118.64 128.09C114.49 147.68 109.83 165.31 103.01 174.46Z" fill="#2F2E41" fill-opacity="1.000000" fill-rule="nonzero"/>
		<path d="M70.53 58.34C71.47 62.97 68.5 67.49 63.89 68.44C59.28 69.39 54.78 66.4 53.84 61.77C52.89 57.14 55.86 52.62 60.47 51.67C65.08 50.72 69.58 53.71 70.53 58.34Z" fill="#FFB6B6" fill-opacity="1.000000" fill-rule="evenodd"/>
		<path d="M59.73 71.74L67.66 71.27C68 71.25 68.33 71.34 68.62 71.52C68.9 71.69 69.12 71.95 69.25 72.26L71.49 77.67L80.81 85.34C80.81 85.34 84.5 90.01 84.5 96.04C84.51 102.08 85.81 116.04 85.81 116.04C85.81 116.04 80.43 108.5 77.11 110.51C76.54 110.85 76.34 111.54 75.75 111.9C75.46 112.07 74.77 111.9 74.47 112.08C69.9 114.78 65.12 117.43 64.67 116.96C63.8 116.05 62.74 111.4 62.74 111.4L55.47 84.85C55.08 83.45 55 81.99 55.24 80.56C55.49 79.13 56.05 77.77 56.88 76.57C57.39 75.86 57.92 75.34 58.41 75.25C59.52 75.01 58.93 72.54 59.73 71.74Z" fill="#6C63FF" fill-opacity="1.000000" fill-rule="nonzero"/>
		<path d="M126.89 191.48L130.28 189.1L122.59 174.46L117.58 177.98L126.89 191.48Z" fill="#FFB6B6" fill-opacity="1.000000" fill-rule="nonzero"/>
		<path d="M127.11 181.53L121.91 186.17C113.63 176.97 107.38 164.08 102.08 149.44C88.19 145.38 77.71 138.84 68.57 131.08C65.47 128.46 63.14 125.1 65.79 121.91C65.91 121.76 66.04 121.62 66.18 121.48C69.3 118.28 77.22 118.89 81.86 115.95L92.22 127L91.57 129.96L111.04 136.53C111.97 136.86 112.84 137.37 113.58 138.03C114.31 138.69 114.91 139.49 115.34 140.39C115.77 141.28 116.01 142.25 116.06 143.24C116.11 144.23 115.96 145.21 115.63 146.15C115.55 146.36 115.47 146.56 115.38 146.77L127.11 181.53Z" fill="#2F2E41" fill-opacity="1.000000" fill-rule="nonzero"/>
		<path d="M124.99 190.26L130.42 186.17L132.11 188.49L140.08 188.46C140.47 188.46 140.86 188.58 141.17 188.8C141.49 189.03 141.73 189.34 141.85 189.7C141.97 190.06 141.96 190.44 141.83 190.8C141.71 191.16 141.46 191.47 141.14 191.68L134.39 196.17L131.56 194.64L132.78 197.24L130.24 198.93L124.99 190.26Z" fill="#2F2E41" fill-opacity="1.000000" fill-rule="nonzero"/>
		<path d="M71.68 137.97C71.14 137.75 70.66 137.41 70.26 136.98C69.87 136.56 69.58 136.05 69.4 135.5C69.23 134.96 69.19 134.38 69.27 133.81C69.35 133.24 69.56 132.7 69.88 132.22L51.93 105.86L59.35 105.31L75.72 131.2C76.52 131.78 77.06 132.62 77.26 133.57C77.46 134.51 77.29 135.5 76.79 136.33C76.3 137.17 75.5 137.79 74.56 138.09C73.62 138.4 72.6 138.35 71.68 137.97Z" fill="#FFB6B6" fill-opacity="1.000000" fill-rule="nonzero"/>
		<path d="M61.7 78.62C61.7 78.62 57.42 75.67 53.47 80.06C49.52 84.45 49.85 102.62 49.81 105.55C49.8 106.47 51.17 108.44 53.05 110.73C53.89 111.76 54.84 112.85 55.81 113.93C56.38 114.55 55.89 115.86 56.46 116.46C57.02 117.07 58.63 116.98 59.17 117.54C61.71 120.21 63.77 122.24 63.77 122.24L72.05 122.34C72.14 116.37 67.93 111.04 62.52 105.89L61.7 78.62Z" fill="#6C63FF" fill-opacity="1.000000" fill-rule="nonzero"/>
		<path d="M73.11 55.67C72.78 55.83 72.47 55.98 72.16 56.13C70.93 56.74 69.65 57.25 68.34 57.68C68.12 57.09 67.79 56.55 67.36 56.08C67.47 56.72 67.42 57.38 67.2 57.99C65.22 58.48 63.14 58.4 61.2 57.76C62.47 60.11 63.4 65.05 63.34 69.45C63.31 71.78 62.99 73.96 62.3 75.53L61.42 72.84C61.33 71.87 61.17 70.92 60.92 69.99C60.33 67.37 59.78 69.12 58.96 70.42L53.25 71.66C53.24 71.6 53.23 71.53 53.22 71.46C53.21 71.38 53.2 71.29 53.18 71.21C53.07 70.68 52.88 70.16 52.61 69.69C52.58 70.32 52.39 70.94 52.06 71.48C52.06 71.49 52.05 71.51 52.04 71.52C51.94 71.69 51.83 71.85 51.71 71.99C51.7 72 51.7 72 51.69 72.01C48.01 72.5 45.42 53.52 50.64 53.16C50.79 53.15 50.82 52.92 50.92 52.8C51.01 52.68 51.1 52.57 51.2 52.45C51.21 52.44 51.22 52.43 51.23 52.41C51.51 52.09 51.8 51.78 52.1 51.48C52.19 51.39 52.29 51.3 52.38 51.22C53.81 49.9 55.52 48.92 57.37 48.34C57.58 48.28 57.8 48.22 58.02 48.16C58.24 48.1 58.46 48.05 58.69 48L58.76 47.99C58.87 47.97 58.98 47.95 59.09 47.93C59.23 47.9 59.36 47.88 59.49 47.87C59.99 48.12 60.42 48.49 60.74 48.96L64.38 48.21C64.48 48.19 64.58 48.17 64.68 48.16L64.68 48.16C69.24 47.4 72.16 51.05 73.11 55.67Z" fill="#2F2E41" fill-opacity="1.000000" fill-rule="nonzero"/>
		<path d="M53.76 52.83C52.97 53.44 52.14 54.07 51.17 54.22C50.21 54.37 49.08 53.88 48.82 52.87C48.49 51.65 49.52 50.53 50.45 49.73L53.4 47.21C53.94 46.7 54.55 46.27 55.21 45.96C55.54 45.8 55.9 45.73 56.26 45.74C56.62 45.75 56.98 45.85 57.3 46.03C57.61 46.26 57.87 46.57 58.04 46.94C58.22 47.3 58.3 47.71 58.28 48.12C58.24 48.94 57.99 49.73 57.55 50.4C57 51.32 56.29 52.1 55.45 52.71C54.61 53.32 53.67 53.74 52.67 53.95L53.76 52.83Z" fill="#2F2E41" fill-opacity="1.000000" fill-rule="nonzero"/>
		<path d="M74.67 111.7L54.61 111.7C53.9 111.7 53.22 112 52.71 112.53C52.21 113.06 51.93 113.78 51.93 114.53C51.93 115.29 52.21 116.01 52.71 116.54C53.22 117.07 53.9 117.37 54.61 117.37L61.96 117.37L61.96 139.36L67.31 139.36L67.31 117.37L74.67 117.37C75.38 117.37 76.06 117.07 76.56 116.54C77.06 116.01 77.34 115.29 77.34 114.53C77.34 113.78 77.06 113.06 76.56 112.53C76.06 112 75.38 111.7 74.67 111.7Z" fill="#3F3D56" fill-opacity="1.000000" fill-rule="nonzero"/>
		<path d="M151.05 199.87L0.45 200C0.35 200 0.24 199.95 0.17 199.86C0.09 199.77 0.05 199.65 0.05 199.52C0.05 199.4 0.09 199.28 0.17 199.19C0.24 199.1 0.35 199.05 0.45 199.05L151.05 198.93C151.16 198.93 151.27 198.98 151.34 199.07C151.42 199.16 151.46 199.28 151.46 199.4C151.46 199.53 151.42 199.65 151.34 199.74C151.27 199.82 151.16 199.87 151.05 199.87Z" fill="#CACACA" fill-opacity="1.000000" fill-rule="nonzero"/>
		<path d="M194.88 153.69L198.23 157.44L213.93 145.95L208.98 140.42L194.88 153.69Z" fill="#FFB6B6" fill-opacity="1.000000" fill-rule="nonzero"/>
		<path d="M201.74 159.25L201.74 159.24L201.41 155.63L201.26 155.56L200.37 155.14L196.2 153.14L196.11 153.05L195.28 152.12L190.64 156.42L196.92 163.34L201.23 168.08L201.37 167.94C201.96 167.4 202.44 166.74 202.78 166.01C203.11 165.27 203.31 164.48 203.34 163.67C203.37 162.86 203.25 162.06 202.98 161.3C202.7 160.54 202.28 159.84 201.74 159.25L201.74 159.25Z" fill="#2F2E41" fill-opacity="1.000000" fill-rule="nonzero"/>
		<path d="M177.93 190.09L182.73 191.48L190.64 174.4L183.56 172.34L177.93 190.09Z" fill="#FFB6B6" fill-opacity="1.000000" fill-rule="nonzero"/>
		<path d="M189.89 194.13C189.5 193.42 188.97 192.8 188.33 192.29C187.69 191.79 186.95 191.41 186.15 191.18L183.96 188.29L183.79 188.31L178.01 188.81L177.88 188.78L176.65 188.42L174.76 194.41L190.31 198.93L190.37 198.74C190.61 197.98 190.69 197.18 190.61 196.39C190.53 195.6 190.28 194.83 189.89 194.13Z" fill="#2F2E41" fill-opacity="1.000000" fill-rule="nonzero"/>
		<path d="M216.58 97.87C216.58 97.87 246.84 127.03 227.71 136.06L221.8 136.06C221.8 136.06 220.02 129.75 215.96 124.44C215.4 123.71 213.3 123.86 212.72 123.15C209.17 118.81 205.33 115.08 202.67 115.23L203.31 135.38L204.34 142.56C204.88 146.28 189.63 178.72 189.63 178.72L180.05 174.96C180.05 174.96 190.03 148.24 190.15 144.39L182.15 102.03L216.58 97.87Z" fill="#2F2E41" fill-opacity="1.000000" fill-rule="nonzero"/>
		<path d="M218.98 99.55C218.82 99.77 218.62 99.96 218.39 100.09C218 100.32 217.58 100.47 217.14 100.56C210.29 102.13 187.92 105.4 182.11 103.84C181.4 103.65 180.93 103.39 180.78 103.04C180.29 101.94 180.35 97.28 180.64 91.65C180.69 90.6 181.84 89.46 181.91 88.36C181.96 87.53 180.93 86.75 180.98 85.91C181.36 80.22 181.85 74.43 182.18 70.76C182.38 68.41 182.53 66.94 182.53 66.94L178.99 44.39L179.16 44.11L179.34 44.02L190.74 38.31L191.36 36.71C191.54 36.24 191.85 35.85 192.25 35.57C192.66 35.29 193.14 35.14 193.63 35.13L201.13 35.1C201.52 35.1 201.91 35.19 202.25 35.37C202.6 35.55 202.9 35.81 203.13 36.13L205.16 38.98L218.61 47.7L218.55 47.86L212.25 67.29L212.21 68.8L212.21 68.81L211.98 80.98L212.63 82.63L211.9 85.34C211.9 85.34 212.24 88.51 214.05 90.86C215.69 92.99 217.77 95.22 218.72 97.03L218.72 97.03C219.24 98.03 219.42 98.89 218.98 99.55Z" fill="#6C63FF" fill-opacity="1.000000" fill-rule="nonzero"/>
		<path d="M229.82 134.66L228.18 136.67C228.18 136.67 213.08 146.86 212.56 147.82L210.18 150L204.4 144.04L207.41 140.41C209.81 137.5 212.91 135.2 216.45 133.72L221.05 129.78L229.82 134.66Z" fill="#2F2E41" fill-opacity="1.000000" fill-rule="nonzero"/>
		<path d="M219.46 105.13L216.76 78.37L216.05 67.35L223.6 65.95C223.6 65.95 223.3 73.83 224.29 78.27C225.26 82.66 224.42 104.54 224.36 105.13C224.91 105.63 225.3 106.3 225.48 107.04C225.65 107.78 225.61 108.56 225.34 109.27C225.08 109.99 224.61 110.6 223.99 111.03C223.38 111.47 222.66 111.7 221.91 111.7C221.17 111.7 220.44 111.47 219.83 111.03C219.22 110.6 218.75 109.99 218.48 109.28C218.22 108.57 218.17 107.79 218.34 107.05C218.52 106.31 218.91 105.64 219.46 105.13Z" fill="#FFB6B6" fill-opacity="1.000000" fill-rule="nonzero"/>
		<path d="M227.13 84.11L217.42 86.17L216.57 82.7L215.58 81.63L213.6 71.04L210.76 64.83L211.5 43.61L218.71 47.52L218.72 47.53C219.82 48.75 220.58 50.5 221.84 52.26C225.82 57.8 226.27 71.25 226.15 78.62C226.14 78.74 226.26 78.87 226.41 79C227.08 79.64 227.53 80.49 227.66 81.42C227.79 82.35 227.6 83.3 227.13 84.11L227.13 84.11Z" fill="#6C63FF" fill-opacity="1.000000" fill-rule="nonzero"/>
		<path d="M175.58 106.19L178.28 79.43L178.99 68.42L171.45 67.02C171.45 67.02 171.74 74.89 170.76 79.34C169.78 83.72 170.63 105.6 170.69 106.19C170.13 106.7 169.74 107.37 169.57 108.11C169.39 108.85 169.44 109.63 169.7 110.34C169.97 111.05 170.44 111.66 171.05 112.1C171.66 112.53 172.39 112.76 173.13 112.76C173.88 112.76 174.6 112.53 175.21 112.1C175.83 111.67 176.3 111.05 176.56 110.34C176.83 109.63 176.88 108.85 176.7 108.11C176.53 107.37 176.14 106.7 175.58 106.19Z" fill="#FFB6B6" fill-opacity="1.000000" fill-rule="nonzero"/>
		<path d="M184.29 66.36L182.18 70.87L181.45 72.44L179.47 82.79L178.48 83.84L177.63 87.23L177.23 87.15L170.02 85.65L167.91 85.22C167.44 84.43 167.25 83.5 167.39 82.59C167.52 81.68 167.96 80.84 168.64 80.22C168.78 80.09 168.9 79.97 168.9 79.85C168.78 72.64 169.22 59.48 173.2 54.07C174.47 52.35 175.23 50.64 176.33 49.44C176.33 49.44 176.33 49.44 176.34 49.44L179.02 45.04L179.19 44.77L179.37 44.68L184.29 66.36Z" fill="#6C63FF" fill-opacity="1.000000" fill-rule="nonzero"/>
		<path d="M207.58 22.87C207.58 28.45 203.08 32.97 197.52 32.97C191.97 32.97 187.46 28.45 187.46 22.87C187.46 17.29 191.97 12.76 197.52 12.76C203.08 12.76 207.58 17.29 207.58 22.87Z" fill="#FFB6B6" fill-opacity="1.000000" fill-rule="evenodd"/>
		<path d="M208.63 18.94C208.6 17.23 208.41 15.03 207.25 13.28C206.26 11.8 204.28 10.63 202.43 11.22C202.45 10.84 202.37 10.45 202.19 10.12C202.02 9.78 201.76 9.5 201.43 9.31C200.73 8.87 199.89 8.79 199.15 8.72C197.27 8.54 195.33 8.35 193.43 8.72C191.3 9.14 189.55 10.27 188.65 11.83L188.63 11.88L188.44 12.81C188.42 12.93 188.37 13.05 188.29 13.15C188.22 13.25 188.13 13.34 188.02 13.4C187.91 13.46 187.8 13.5 187.67 13.51C187.55 13.51 187.43 13.49 187.31 13.45C187.19 13.4 187.05 13.39 186.92 13.41C186.78 13.43 186.66 13.49 186.56 13.58C186.45 13.66 186.37 13.78 186.32 13.91C186.27 14.03 186.26 14.17 186.28 14.31L186.33 14.68L185.79 14.58C185.66 14.55 185.52 14.56 185.39 14.61C185.26 14.65 185.15 14.74 185.06 14.84C184.97 14.95 184.91 15.08 184.89 15.22C184.87 15.36 184.88 15.5 184.93 15.64L185.08 16.06C184.96 16.06 184.86 16.08 184.75 16.13C184.65 16.17 184.56 16.24 184.49 16.32C184.38 16.45 184.31 16.6 184.29 16.76C184.27 16.93 184.31 17.09 184.38 17.24C184.98 18.29 185.84 19.18 186.86 19.8C187.32 20.09 187.81 20.31 188.33 20.45C188.44 20.48 188.55 20.51 188.66 20.54C192.8 21.46 197.06 21.59 201.24 20.92C200.99 21.78 200.9 22.67 200.96 23.55C201.09 24.66 201.72 25.58 202.57 25.88C202.76 25.95 202.95 26 203.15 26.03C203.34 26.06 203.53 26.11 203.71 26.17C203.99 26.27 204.23 26.45 204.41 26.68C204.59 26.91 204.72 27.18 204.77 27.47C204.81 27.77 204.79 28.07 204.69 28.35C204.59 28.63 204.42 28.88 204.19 29.06C204.19 29.06 205.08 29.82 205.19 29.78C205.62 29.58 205.98 29.25 206.22 28.83C207.9 26.33 208.72 23.01 208.63 18.94Z" fill="#2F2E41" fill-opacity="1.000000" fill-rule="nonzero"/>
	</g>
</svg>
