<svg width="262.000000" height="200.000000" viewBox="0 0 262 200" fill="none" xmlns="http://www.w3.org/2000/svg" xmlns:xlink="http://www.w3.org/1999/xlink">
	<desc>
			Created with Pixso.
	</desc>
	<defs>
		<clipPath id="clip2_59">
			<rect width="262.000000" height="200.000000" fill="white" fill-opacity="0"/>
		</clipPath>
	</defs>
	<rect width="262.000000" height="200.000000" fill="#FFFFFF" fill-opacity="0"/>
	<g clip-path="url(#clip2_59)">
		<path d="M262 107.38L262 191.4C261.99 193.68 261.09 195.86 259.48 197.48C257.87 199.09 255.69 199.99 253.42 200L189.09 200L189.69 199.24L261.24 108.34L262 107.38Z" fill="#F2F2F2" fill-opacity="1.000000" fill-rule="nonzero"/>
		<path d="M102.38 77.79L28.52 77.79C27.91 77.79 27.33 78.03 26.9 78.46C26.48 78.88 26.24 79.47 26.24 80.07C26.24 80.68 26.48 81.26 26.9 81.69C27.33 82.12 27.91 82.36 28.52 82.36L102.38 82.36C102.99 82.36 103.57 82.12 103.99 81.69C104.42 81.26 104.66 80.68 104.66 80.07C104.66 79.47 104.42 78.88 103.99 78.46C103.57 78.03 102.99 77.79 102.38 77.79Z" fill="#E6E6E6" fill-opacity="1.000000" fill-rule="nonzero"/>
		<path d="M51.42 64.97L28.52 64.97C27.91 64.97 27.33 65.21 26.9 65.64C26.48 66.06 26.24 66.65 26.24 67.25C26.24 67.86 26.48 68.44 26.9 68.87C27.33 69.3 27.91 69.54 28.52 69.54L51.42 69.54C52.02 69.54 52.6 69.3 53.03 68.87C53.46 68.44 53.7 67.86 53.7 67.25C53.7 66.65 53.46 66.06 53.03 65.64C52.6 65.21 52.02 64.97 51.42 64.97L51.42 64.97Z" fill="#E6E6E6" fill-opacity="1.000000" fill-rule="nonzero"/>
		<path d="M253.42 0L8.57 0C6.3 0 4.12 0.9 2.51 2.52C0.9 4.13 0 6.31 0 8.59L0 191.4C0 193.68 0.9 195.86 2.51 197.48C4.12 199.09 6.3 199.99 8.57 200L253.42 200C255.69 199.99 257.87 199.09 259.48 197.48C261.09 195.86 261.99 193.68 262 191.4L262 8.59C261.99 6.31 261.09 4.13 259.48 2.52C257.87 0.9 255.69 0 253.42 0ZM261.24 191.4C261.24 192.43 261.04 193.45 260.64 194.4C260.25 195.35 259.67 196.21 258.95 196.94C258.22 197.67 257.36 198.25 256.41 198.64C255.46 199.04 254.44 199.24 253.42 199.24L8.57 199.24C6.5 199.24 4.51 198.41 3.04 196.94C1.58 195.47 0.75 193.48 0.75 191.4L0.75 59.72C0.75 44.08 6.95 29.08 17.99 18.02C29.03 6.97 44 0.75 59.61 0.75L253.42 0.75C254.44 0.75 255.46 0.96 256.41 1.35C257.36 1.74 258.22 2.32 258.95 3.05C259.67 3.78 260.25 4.64 260.64 5.59C261.04 6.54 261.24 7.56 261.24 8.59L261.24 191.4Z" fill="#E6E6E6" fill-opacity="1.000000" fill-rule="nonzero"/>
		<path d="M238.14 33.05L23.87 33.05C23.77 33.05 23.68 33.01 23.61 32.94C23.54 32.87 23.5 32.77 23.5 32.67C23.5 32.57 23.54 32.48 23.61 32.4C23.68 32.33 23.77 32.29 23.87 32.29L238.14 32.29C238.24 32.29 238.33 32.33 238.4 32.4C238.47 32.48 238.51 32.57 238.51 32.67C238.51 32.77 238.47 32.87 238.4 32.94C238.33 33.01 238.24 33.05 238.14 33.05Z" fill="#E6E6E6" fill-opacity="1.000000" fill-rule="nonzero"/>
		<path d="M37.79 18.41C37.79 20.21 36.36 21.68 34.59 21.68C32.83 21.68 31.4 20.21 31.4 18.41C31.4 16.6 32.83 15.13 34.59 15.13C36.36 15.13 37.79 16.6 37.79 18.41Z" fill="#E6E6E6" fill-opacity="1.000000" fill-rule="evenodd"/>
		<path d="M48.84 18.41C48.84 20.21 47.4 21.68 45.64 21.68C43.87 21.68 42.44 20.21 42.44 18.41C42.44 16.6 43.87 15.13 45.64 15.13C47.4 15.13 48.84 16.6 48.84 18.41Z" fill="#E6E6E6" fill-opacity="1.000000" fill-rule="evenodd"/>
		<path d="M59.88 18.41C59.88 20.21 58.45 21.68 56.68 21.68C54.92 21.68 53.49 20.21 53.49 18.41C53.49 16.6 54.92 15.13 56.68 15.13C58.45 15.13 59.88 16.6 59.88 18.41Z" fill="#E6E6E6" fill-opacity="1.000000" fill-rule="evenodd"/>
		<path d="M69.28 20.99C69.23 20.99 69.18 20.98 69.13 20.96C69.08 20.94 69.04 20.92 69.01 20.88L66.85 18.67C66.78 18.6 66.74 18.5 66.74 18.41C66.74 18.31 66.78 18.21 66.85 18.14L69.01 15.93C69.04 15.89 69.08 15.87 69.13 15.85C69.17 15.83 69.22 15.82 69.27 15.81C69.32 15.81 69.37 15.82 69.42 15.84C69.47 15.86 69.51 15.89 69.54 15.92C69.58 15.96 69.61 16 69.63 16.05C69.65 16.09 69.66 16.14 69.66 16.19C69.66 16.24 69.65 16.29 69.63 16.34C69.61 16.38 69.58 16.43 69.55 16.46L67.65 18.41L69.55 20.35C69.6 20.4 69.63 20.47 69.65 20.54C69.66 20.62 69.65 20.69 69.63 20.76C69.6 20.83 69.55 20.89 69.49 20.93C69.42 20.97 69.35 20.99 69.28 20.99Z" fill="#E6E6E6" fill-opacity="1.000000" fill-rule="nonzero"/>
		<path d="M72.9 20.99C72.83 20.99 72.76 20.97 72.69 20.93C72.63 20.89 72.58 20.83 72.55 20.76C72.52 20.69 72.52 20.62 72.53 20.54C72.54 20.47 72.58 20.4 72.63 20.35L74.53 18.41L72.63 16.46C72.56 16.39 72.53 16.29 72.53 16.19C72.53 16.09 72.57 16 72.64 15.93C72.71 15.86 72.81 15.82 72.91 15.82C73.01 15.82 73.1 15.86 73.17 15.93L75.33 18.14C75.4 18.21 75.44 18.31 75.44 18.41C75.44 18.5 75.4 18.6 75.33 18.67L73.17 20.88C73.14 20.92 73.1 20.94 73.05 20.96C73 20.98 72.95 20.99 72.9 20.99Z" fill="#E6E6E6" fill-opacity="1.000000" fill-rule="nonzero"/>
		<path d="M219.03 15.51L215.02 15.51C214.91 15.51 214.8 15.53 214.7 15.57C214.6 15.61 214.51 15.68 214.43 15.75C214.36 15.83 214.29 15.92 214.25 16.02C214.21 16.12 214.19 16.23 214.19 16.34L214.19 20.36C214.19 20.47 214.21 20.58 214.25 20.68C214.29 20.78 214.36 20.87 214.43 20.95C214.51 21.03 214.6 21.09 214.7 21.13C214.8 21.17 214.91 21.19 215.02 21.19L219.03 21.19C219.25 21.19 219.46 21.1 219.62 20.95C219.77 20.79 219.86 20.58 219.86 20.36L219.86 16.34C219.86 16.12 219.77 15.91 219.62 15.75C219.46 15.6 219.25 15.51 219.03 15.51Z" fill="#E6E6E6" fill-opacity="1.000000" fill-rule="nonzero"/>
		<path d="M209.2 15.51L205.19 15.51C205.08 15.51 204.97 15.53 204.87 15.57C204.77 15.61 204.68 15.68 204.6 15.75C204.53 15.83 204.46 15.92 204.42 16.02C204.38 16.12 204.36 16.23 204.36 16.34L204.36 20.36C204.36 20.47 204.38 20.58 204.42 20.68C204.46 20.78 204.53 20.87 204.6 20.95C204.68 21.03 204.77 21.09 204.87 21.13C204.97 21.17 205.08 21.19 205.19 21.19L209.2 21.19C209.42 21.19 209.63 21.1 209.79 20.95C209.94 20.79 210.03 20.58 210.03 20.36L210.03 16.34C210.03 16.12 209.94 15.91 209.79 15.75C209.63 15.6 209.42 15.51 209.2 15.51Z" fill="#E6E6E6" fill-opacity="1.000000" fill-rule="nonzero"/>
		<path d="M228.29 15.7L224.28 15.7C224.17 15.7 224.06 15.72 223.96 15.76C223.86 15.8 223.77 15.87 223.69 15.94C223.62 16.02 223.56 16.11 223.52 16.21C223.47 16.31 223.45 16.42 223.45 16.53L223.45 20.55C223.45 20.66 223.47 20.77 223.52 20.87C223.56 20.97 223.62 21.06 223.69 21.14C223.77 21.22 223.86 21.28 223.96 21.32C224.06 21.36 224.17 21.38 224.28 21.38L228.29 21.38C228.51 21.38 228.72 21.29 228.88 21.14C229.03 20.98 229.12 20.77 229.12 20.55L229.12 16.53C229.12 16.31 229.03 16.1 228.88 15.94C228.72 15.79 228.51 15.7 228.29 15.7Z" fill="#E6E6E6" fill-opacity="1.000000" fill-rule="nonzero"/>
		<path d="M147.04 17.23L114.97 17.23C114.71 17.23 114.45 17.34 114.26 17.53C114.07 17.72 113.96 17.97 113.96 18.24C113.96 18.51 114.07 18.77 114.26 18.96C114.45 19.15 114.71 19.25 114.97 19.25L147.04 19.25C147.3 19.25 147.56 19.15 147.75 18.96C147.94 18.77 148.05 18.51 148.05 18.24C148.05 17.97 147.94 17.72 147.75 17.53C147.56 17.34 147.3 17.23 147.04 17.23Z" fill="#E6E6E6" fill-opacity="1.000000" fill-rule="nonzero"/>
		<path d="M61.09 155.47L41.92 154.86C39.26 154.78 36.27 154.78 34.37 156.16C32.22 157.72 32.55 160.49 34.33 162.28C36.12 164.08 38.97 165.11 41.78 165.94C56.66 170.37 73.13 171.27 89.12 170.27C105.11 169.27 120.78 166.43 136.36 163.61C137.84 163.34 139.52 162.95 140.12 161.92C140.7 160.92 139.94 159.72 138.75 159.08C137.57 158.43 136.07 158.22 134.62 158.03C108.36 154.57 81.82 153.81 55.41 155.76L61.09 155.47Z" fill="#6C63FF" fill-opacity="1.000000" fill-rule="nonzero"/>
		<path d="M95.54 140.69L95.54 136.15C92.25 136.19 80.47 136.11 77.4 136.15C77.17 152.03 75.77 148.92 88.76 148.98C89.35 148.99 89.93 149.22 90.35 149.65C90.77 150.07 91.01 150.64 91.01 151.24L91.01 151.31C91.01 151.91 90.77 152.49 90.35 152.91C89.92 153.33 89.35 153.57 88.75 153.57L77.4 153.57L77.4 158.12L95.54 158.12C95.57 158.1 95.53 153.73 95.54 153.57C96.31 140.4 94.79 145.14 83.76 144.61C83.27 144.59 82.8 144.37 82.46 144.01C82.12 143.65 81.93 143.18 81.93 142.68L81.93 142.62C81.93 142.11 82.14 141.62 82.5 141.26C82.86 140.9 83.35 140.69 83.86 140.69L95.54 140.69Z" fill="#3F3D56" fill-opacity="1.000000" fill-rule="nonzero"/>
		<path d="M117.85 140.69L117.85 136.15C114.56 136.19 102.78 136.11 99.7 136.15C99.47 152.17 98.05 148.87 111.4 148.99C111.91 148.99 112.4 149.2 112.76 149.56C113.11 149.92 113.31 150.41 113.31 150.92C113.31 151.16 113.31 151.4 113.31 151.64C113.31 151.89 113.26 152.14 113.17 152.38C113.07 152.61 112.93 152.83 112.75 153C112.57 153.19 112.36 153.33 112.12 153.42C111.89 153.52 111.64 153.57 111.39 153.57L99.7 153.57L99.7 158.12L117.85 158.12C117.88 158.1 117.83 153.73 117.85 153.57C118.62 140.4 117.1 145.14 106.07 144.61C105.57 144.59 105.11 144.37 104.77 144.01C104.43 143.65 104.24 143.18 104.24 142.68L104.24 142.62C104.24 142.11 104.44 141.62 104.8 141.26C105.17 140.9 105.66 140.69 106.17 140.69L117.85 140.69Z" fill="#3F3D56" fill-opacity="1.000000" fill-rule="nonzero"/>
		<path d="M72.1 140.69L72.1 136.15L53.96 136.15C53.94 140.2 53.97 150.93 53.96 155.09C50.4 161.12 70.61 156.94 72.1 158.12C72.1 158.12 72.1 153.57 72.1 153.57C58.3 153.5 57.95 156.09 58.39 143.56C58.42 142.79 58.74 142.06 59.3 141.53C59.85 140.99 60.59 140.69 61.36 140.69C65.35 140.69 72.1 140.69 72.1 140.69Z" fill="#3F3D56" fill-opacity="1.000000" fill-rule="nonzero"/>
		<path d="M107.97 101.17L88.8 100.67C86.14 100.6 83.15 100.6 81.25 101.75C79.1 103.05 79.43 105.36 81.21 106.86C83 108.35 85.85 109.21 88.66 109.9C103.54 113.6 120.01 114.35 136 113.51C151.99 112.68 167.66 110.31 183.24 107.96C184.72 107.74 186.4 107.41 187 106.56C187.58 105.72 186.82 104.72 185.63 104.18C184.45 103.65 182.95 103.47 181.5 103.31C155.2 100.42 128.7 99.79 102.29 101.42L107.97 101.17Z" fill="#6C63FF" fill-opacity="1.000000" fill-rule="nonzero"/>
		<path d="M104.62 81.22C104.31 88.24 106.88 90.45 98 89.55C97.4 85.37 100.44 79.56 93.46 81.03C94.86 84.07 89.57 107.11 98 103C98.47 96.08 95.35 93.04 104.62 94.1C105.36 98.38 101.89 104.68 109.15 103.19C107.76 100.15 113.05 77.11 104.62 81.22Z" fill="#3F3D56" fill-opacity="1.000000" fill-rule="nonzero"/>
		<path d="M151.12 81.22C151.74 81.61 145.41 88.31 145.28 88.86C145.09 88.4 139.05 81.83 139.78 81.22C131.37 77.06 136.61 100.24 135.24 103.19C135.24 103.19 139.78 103.19 139.78 103.19L139.78 88.8C146.15 97.42 144.97 95.97 151.12 88.38L151.12 103.19C159.52 107.35 154.29 84.18 155.66 81.22C155.66 81.22 151.12 81.22 151.12 81.22Z" fill="#3F3D56" fill-opacity="1.000000" fill-rule="nonzero"/>
		<path d="M131.08 81.22L112.94 81.22C111.87 87.59 115.39 85.46 119.74 85.77L119.74 103.19L124.28 103.19L124.28 85.77C128.6 85.47 132.16 87.57 131.08 81.22Z" fill="#3F3D56" fill-opacity="1.000000" fill-rule="nonzero"/>
		<path d="M163.97 98.65C162.93 92.89 162.93 86.98 163.97 81.22L159.44 81.22C159.46 84.1 159.43 95.72 159.43 101.04C159.43 101.61 159.66 102.16 160.06 102.57C160.47 102.97 161.02 103.2 161.59 103.2C166.16 103.21 174.89 103.17 177.58 103.19L177.58 98.65L163.97 98.65Z" fill="#3F3D56" fill-opacity="1.000000" fill-rule="nonzero"/>
		<path d="M48.08 99.4L29.64 99.4C28.74 99.4 27.87 99.76 27.23 100.4C26.59 101.04 26.24 101.91 26.24 102.81C26.24 103.72 26.59 104.58 27.23 105.22C27.87 105.86 28.74 106.22 29.64 106.22L48.08 106.22C48.98 106.22 49.85 105.86 50.48 105.22C51.12 104.58 51.48 103.72 51.48 102.81C51.48 101.91 51.12 101.04 50.48 100.4C49.85 99.76 48.98 99.4 48.08 99.4L48.08 99.4Z" fill="#E6E6E6" fill-opacity="1.000000" fill-rule="nonzero"/>
		<path d="M215.26 196.04L211.52 196.04L209.74 181.58L215.26 181.58L215.26 196.04Z" fill="#FFB6B6" fill-opacity="1.000000" fill-rule="nonzero"/>
		<path d="M215.4 199.96L203.88 199.96L203.88 199.81C203.88 198.62 204.36 197.48 205.2 196.64C206.04 195.79 207.18 195.32 208.36 195.32L208.36 195.32L210.47 193.72L214.39 195.32L215.4 195.32L215.4 199.96Z" fill="#2F2E41" fill-opacity="1.000000" fill-rule="nonzero"/>
		<path d="M228.5 196.04L224.75 196.04L222.97 181.58L228.5 181.58L228.5 196.04Z" fill="#FFB6B6" fill-opacity="1.000000" fill-rule="nonzero"/>
		<path d="M228.63 199.96L217.12 199.96L217.12 199.81C217.12 198.62 217.59 197.48 218.43 196.64C219.27 195.79 220.41 195.32 221.6 195.32L221.6 195.32L223.7 193.72L227.62 195.32L228.63 195.32L228.63 199.96Z" fill="#2F2E41" fill-opacity="1.000000" fill-rule="nonzero"/>
		<path d="M205.94 117.22C205.94 117.22 202.34 128.31 203.01 129.76C203.67 131.22 204.81 130.09 203.67 131.22C202.54 132.36 201.55 131.15 202.61 133.08C203.67 135.01 205.28 150.9 205.99 151.67C206.7 152.43 207.67 152.46 206.8 153.2C205.94 153.95 204.81 152.43 205.94 153.95C207.07 155.47 210.08 190.42 210.08 190.42L215.96 190.42C215.96 190.42 217.43 188.73 216.6 187.63C215.77 186.53 216.67 186.1 216.6 185.37C216.53 184.63 216.8 183.05 216.85 182.32C216.9 181.6 217.9 164.38 215.51 154.43L219.86 135.49L222.04 158.38C222.04 158.38 219.61 177.59 222.04 183.76C222.04 183.76 220.08 185.39 220.95 186.34C221.82 187.28 222.57 186.53 221.82 187.28C221.06 188.04 222.95 190.69 222.95 190.69L229.38 190.31L233.02 154.43C233.02 154.43 233.63 150.69 233.02 150.05C232.4 149.4 232.4 151.68 232.4 149.4L232.4 146.37C232.4 146.37 235.15 127.74 235.1 126.64C235.05 125.54 230.51 117.59 230.51 117.59L205.94 117.22Z" fill="#2F2E41" fill-opacity="1.000000" fill-rule="nonzero"/>
		<path d="M224.95 72.4L215.57 71.75L212.76 76.19L206 78.94L206 100.8C206.7 102.91 207.06 105.13 207.07 107.36C207.05 111.71 205.93 116.84 206.32 117.97C210.1 128.95 230.89 117.97 230.89 117.97L230.51 106.22L231.03 79.68L226.78 76.29L224.95 72.4Z" fill="#E6E6E6" fill-opacity="1.000000" fill-rule="nonzero"/>
		<path d="M205.56 121.97L204.92 115.06L200.92 114.88L201.87 122.16C201.63 122.52 201.49 122.93 201.47 123.37C201.45 123.8 201.56 124.23 201.77 124.6C201.98 124.98 202.29 125.29 202.67 125.5C203.05 125.71 203.48 125.8 203.91 125.78C204.34 125.76 204.75 125.62 205.11 125.37C205.46 125.12 205.74 124.78 205.91 124.39C206.09 123.99 206.14 123.56 206.08 123.13C206.02 122.7 205.84 122.3 205.56 121.97L205.56 121.97Z" fill="#FFB6B6" fill-opacity="1.000000" fill-rule="nonzero"/>
		<path d="M207.53 78.36L207.42 78.38C206.39 78.55 205.42 78.98 204.59 79.61C203.76 80.25 203.1 81.08 202.66 82.03C201.52 84.5 197.8 100.78 199.43 103.24C200.69 105.14 200.39 104.77 199.79 106.21C199.2 107.64 198.24 106.11 199.03 108.39C199.81 110.67 200.67 110.35 199.94 111.23C199.22 112.11 198.47 111.93 199.18 113.41C199.89 114.88 199.77 115.38 199.9 115.94C200.04 116.49 199.92 120.4 199.92 120.4C199.92 120.4 204.18 120.08 206.31 121.09C206.31 121.09 205.12 117.15 205.79 116.51C206.46 115.88 207.26 115.81 206.69 114.89C206.12 113.97 204.82 113.93 206.23 113.47C207.65 113.01 207.19 104.77 207.19 104.77C209.52 98.66 208.6 88.6 207.53 78.36Z" fill="#E6E6E6" fill-opacity="1.000000" fill-rule="nonzero"/>
		<path d="M233.23 122.46L233.53 115.53L237.51 115.14L236.93 122.46C237.19 122.81 237.35 123.22 237.39 123.65C237.43 124.08 237.35 124.51 237.16 124.9C236.96 125.29 236.67 125.61 236.3 125.84C235.93 126.07 235.51 126.19 235.08 126.19C234.65 126.19 234.22 126.06 233.86 125.84C233.49 125.61 233.2 125.28 233 124.9C232.81 124.51 232.73 124.08 232.77 123.65C232.81 123.21 232.97 122.8 233.23 122.46Z" fill="#FFB6B6" fill-opacity="1.000000" fill-rule="nonzero"/>
		<path d="M229.08 79.01L229.19 79.02C230.22 79.14 231.22 79.52 232.08 80.11C232.94 80.7 233.64 81.5 234.12 82.42C235.39 84.84 239.39 101.2 238.41 103.45C237.5 105.54 237.54 105.02 238.2 106.43C238.87 107.83 239.74 106.25 239.08 108.57C238.41 110.89 237.53 110.61 238.3 111.45C239.07 112.29 239.81 112.08 239.18 113.59C238.55 115.1 238.69 115.59 238.58 116.15C238.48 116.71 238.79 120.61 238.79 120.61C238.79 120.61 234.51 120.5 232.45 121.62C232.45 121.62 233.43 117.62 232.73 117.03C232.03 116.43 231.22 116.39 231.75 115.45C232.28 114.5 233.57 114.39 232.14 114.01C230.7 113.62 230.74 105.37 230.74 105.37L229.08 79.01Z" fill="#E6E6E6" fill-opacity="1.000000" fill-rule="nonzero"/>
		<path d="M227.81 63.03C227.81 67.08 224.53 70.36 220.49 70.36C216.45 70.36 213.17 67.08 213.17 63.03C213.17 58.98 216.45 55.7 220.49 55.7C224.53 55.7 227.81 58.98 227.81 63.03Z" fill="#FFB6B6" fill-opacity="1.000000" fill-rule="evenodd"/>
		<path d="M225.58 69.31C226.6 68.51 226.7 66.99 227.57 66.03C229.02 64.42 229.71 62.7 228.94 60.8C228.27 59.12 228.41 57.05 226.96 55.97C227.68 55.71 227.84 55.18 227.22 55.17C226.79 55.16 225.21 55.97 225.97 54.96C226.73 53.95 225.29 54.35 225.39 53.93C225.49 53.52 226.1 53.29 226.36 53.62C226.14 53.39 225.86 53.21 225.55 53.1C225.25 52.99 224.92 52.96 224.6 52.99C224.28 53.03 223.97 53.14 223.69 53.31C223.42 53.49 223.19 53.73 223.02 54C222.16 52.72 221.25 51.83 219.94 52.65C218.66 53.45 218.67 54.44 217.29 54.2C216.64 54.09 216.58 55.32 216.13 55.81C215.93 56.07 215.66 56.28 215.36 56.41C215.05 56.54 214.72 56.59 214.39 56.56C213.74 56.43 213.25 55.62 213.61 55.07L212.08 58.56L211.47 57.81C210.49 58.45 210.81 60.11 211.79 60.74C212.78 61.37 214.06 61.24 215.2 60.96C216.56 60.62 217.97 60.51 219.37 60.61C221.52 60.92 223.01 63.48 222.21 65.5C223.04 64.69 224.56 65.36 224.99 66.43C225.41 67.51 225.1 68.72 224.78 69.83L225.58 69.31Z" fill="#2F2E41" fill-opacity="1.000000" fill-rule="nonzero"/>
	</g>
</svg>
