<svg width="200.000000" height="47.000000" viewBox="0 0 200 47" fill="none" xmlns="http://www.w3.org/2000/svg" xmlns:xlink="http://www.w3.org/1999/xlink">
	<desc>
			Created with Pixso.
	</desc>
	<defs/>
	<path d="M53.03 34.1L53.03 13.6L55.19 13.6L66.65 29.51L66.65 13.6L69.12 13.6L69.12 34.1L66.91 34.1L55.5 18.17L55.5 34.1L53.03 34.1Z" fill="#FFFFFF" fill-opacity="1.000000" fill-rule="nonzero"/>
	<path d="M100.5 29.24L100.5 32.54C99.48 33.17 98.44 33.64 97.39 33.97C96.33 34.29 95.28 34.46 94.24 34.46C93.25 34.46 92.3 34.3 91.39 34C90.49 33.69 89.63 33.23 88.83 32.63C87.54 31.63 86.53 30.36 85.81 28.81C85.1 27.26 84.74 25.58 84.74 23.76C84.74 22.38 84.97 21.05 85.44 19.75C85.92 18.46 86.59 17.32 87.46 16.36C88.39 15.32 89.43 14.55 90.58 14.04C91.74 13.52 93.01 13.27 94.41 13.27C95.4 13.27 96.36 13.4 97.33 13.66C98.29 13.93 99.3 14.34 100.35 14.91L100.35 18.1C99.25 17.39 98.21 16.87 97.24 16.53C96.27 16.2 95.33 16.03 94.41 16.03C92.38 16.03 90.7 16.77 89.38 18.26C88.05 19.76 87.38 21.62 87.38 23.87C87.38 26.09 88.04 27.94 89.35 29.43C90.65 30.92 92.29 31.67 94.27 31.67C95.28 31.67 96.3 31.47 97.34 31.07C98.38 30.67 99.43 30.06 100.5 29.24Z" fill="#FFFFFF" fill-opacity="1.000000" fill-rule="nonzero"/>
	<path d="M103.25 13.6L105.72 13.6L105.72 25.36C105.72 26.67 105.78 27.6 105.9 28.15C106.02 28.7 106.22 29.17 106.51 29.57C107.02 30.29 107.63 30.82 108.33 31.17C109.04 31.52 109.84 31.7 110.74 31.7C112.24 31.7 113.46 31.24 114.38 30.32C115.3 29.4 115.76 28.19 115.76 26.68L115.76 13.6L118.23 13.6L118.23 26.77C118.23 29.06 117.54 30.91 116.15 32.33C114.77 33.75 112.96 34.46 110.74 34.46C109.41 34.46 108.23 34.18 107.16 33.63C106.1 33.08 105.21 32.27 104.48 31.21C104.03 30.57 103.72 29.87 103.53 29.09C103.34 28.31 103.25 27.1 103.25 25.48L103.25 13.6Z" fill="#FFFFFF" fill-opacity="1.000000" fill-rule="nonzero"/>
	<path d="M124.34 25.06L124.34 31.43L127.65 31.43C128.86 31.43 129.75 31.18 130.3 30.67C130.86 30.17 131.14 29.38 131.14 28.31C131.14 27.19 130.83 26.37 130.2 25.85C129.58 25.32 128.6 25.06 127.25 25.06L124.34 25.06ZM121.87 34.1L121.87 13.6L126.97 13.6C128.7 13.6 130.04 14.06 130.98 14.99C131.92 15.92 132.39 17.23 132.39 18.95C132.39 20 132.18 20.88 131.76 21.58C131.33 22.29 130.69 22.83 129.82 23.21C131.08 23.56 132.06 24.2 132.76 25.13C133.45 26.06 133.79 27.18 133.79 28.52C133.79 30.22 133.27 31.57 132.21 32.58C131.15 33.59 129.72 34.1 127.91 34.1L121.87 34.1ZM124.34 22.39L126.02 22.39C127.29 22.39 128.23 22.12 128.85 21.59C129.46 21.05 129.77 20.23 129.77 19.13C129.77 18.12 129.53 17.38 129.04 16.93C128.55 16.47 127.78 16.24 126.72 16.24L124.34 16.24L124.34 22.39Z" fill="#FFFFFF" fill-opacity="1.000000" fill-rule="nonzero"/>
	<path d="M139.94 25.42L145.36 25.42L142.61 18.04L139.94 25.42ZM134.2 34.1L141.74 13.6L143.56 13.6L151.19 34.1L148.62 34.1L146.38 28.07L138.97 28.07L136.75 34.1L134.2 34.1Z" fill="#FFFFFF" fill-opacity="1.000000" fill-rule="nonzero"/>
	<path d="M155.35 34.1L155.35 16.27L148.96 16.27L148.96 13.6L164.21 13.6L164.21 16.27L157.82 16.27L157.82 34.1L155.35 34.1Z" fill="#FFFFFF" fill-opacity="1.000000" fill-rule="nonzero"/>
	<path d="M167.96 23.87C167.96 24.91 168.12 25.91 168.45 26.86C168.78 27.81 169.26 28.65 169.88 29.38C170.49 30.11 171.2 30.68 172.02 31.07C172.83 31.47 173.69 31.67 174.57 31.67C175.48 31.67 176.34 31.47 177.14 31.09C177.94 30.7 178.66 30.13 179.29 29.38C179.91 28.65 180.39 27.81 180.72 26.86C181.06 25.91 181.23 24.91 181.23 23.87C181.23 22.82 181.06 21.84 180.73 20.9C180.4 19.97 179.91 19.12 179.26 18.34C178.64 17.59 177.93 17.02 177.12 16.62C176.32 16.23 175.47 16.03 174.57 16.03C173.71 16.03 172.88 16.23 172.06 16.63C171.26 17.03 170.53 17.6 169.88 18.34C169.26 19.06 168.78 19.89 168.45 20.85C168.12 21.81 167.96 22.81 167.96 23.87ZM165.31 23.76C165.31 22.39 165.54 21.06 166.02 19.78C166.49 18.48 167.16 17.34 168.03 16.36C168.92 15.35 169.92 14.59 171.04 14.06C172.16 13.53 173.34 13.27 174.57 13.27C175.83 13.27 177.03 13.53 178.16 14.07C179.29 14.6 180.29 15.36 181.15 16.36C182.05 17.39 182.73 18.55 183.19 19.82C183.65 21.09 183.88 22.47 183.88 23.95C183.88 25.35 183.64 26.69 183.17 27.98C182.7 29.26 182.04 30.39 181.18 31.37C180.27 32.38 179.26 33.15 178.15 33.67C177.03 34.2 175.84 34.46 174.57 34.46C173.34 34.46 172.15 34.19 171.02 33.65C169.89 33.11 168.89 32.35 168.03 31.37C167.14 30.34 166.46 29.18 166 27.9C165.54 26.6 165.31 25.22 165.31 23.76Z" fill="#FFFFFF" fill-opacity="1.000000" fill-rule="nonzero"/>
	<path d="M186.62 34.1L186.62 13.6L191.72 13.6C193.47 13.6 194.83 14.09 195.79 15.06C196.74 16.04 197.22 17.42 197.22 19.21C197.22 20.56 196.96 21.65 196.43 22.47C195.91 23.29 195.08 23.9 193.95 24.31C194.24 24.5 194.51 24.74 194.77 25.05C195.03 25.36 195.36 25.87 195.77 26.6L200 34.1L196.99 34.1L194 28.72C193.11 27.1 192.38 26.06 191.83 25.62C191.28 25.17 190.63 24.94 189.87 24.94L189.12 24.94L189.12 34.1L186.62 34.1ZM189.12 22.48L191.18 22.48C192.34 22.48 193.21 22.22 193.78 21.69C194.36 21.16 194.65 20.36 194.65 19.27C194.65 18.15 194.37 17.35 193.83 16.84C193.28 16.34 192.4 16.09 191.18 16.09L189.12 16.09L189.12 22.48Z" fill="#FFFFFF" fill-opacity="1.000000" fill-rule="nonzero"/>
	<path d="M51.47 8.09C51.47 9.58 50.27 10.79 48.78 10.79C47.3 10.79 46.1 9.58 46.1 8.09C46.1 6.6 47.3 5.39 48.78 5.39C50.27 5.39 51.47 6.6 51.47 8.09Z" fill="#FF6583" fill-opacity="1.000000" fill-rule="evenodd"/>
	<path d="M47.59 13.27L50.02 13.27L50.02 33.8L47.59 33.8L47.59 13.27Z" fill="#FFFFFF" fill-opacity="1.000000" fill-rule="evenodd"/>
	<path d="M0 33.77L0 13.31L2.97 13.31L2.97 33.77L0 33.77Z" fill="#FFFFFF" fill-opacity="1.000000" fill-rule="nonzero"/>
	<path d="M13.09 33.77L13.09 15.97L5.48 15.97L5.48 13.31L23.65 13.31L23.65 15.97L16.04 15.97L16.04 33.77L13.09 33.77Z" fill="#FFFFFF" fill-opacity="1.000000" fill-rule="nonzero"/>
	<path d="M30 24.26C30 25.75 28.8 26.96 27.32 26.96C25.83 26.96 24.63 25.75 24.63 24.26C24.63 22.77 25.83 21.56 27.32 21.56C28.8 21.56 30 22.77 30 24.26Z" fill="#FFFFFF" fill-opacity="1.000000" fill-rule="evenodd"/>
	<path d="M58.03 46C45.41 46 35.18 35.7 35.18 23C35.18 10.29 45.41 0 58.03 0C70.65 0 80.88 10.29 80.88 23C80.88 35.7 70.65 46 58.03 46Z" stroke="#FFFFFF" stroke-opacity="1.000000" stroke-width="1.000000"/>
</svg>
