<svg width="18.000000" height="22.000000" viewBox="0 0 18 22" fill="none" xmlns="http://www.w3.org/2000/svg" xmlns:xlink="http://www.w3.org/1999/xlink">
	<desc>
			Created with Pixso.
	</desc>
	<defs/>
	<path d="M9.16 0C9.13 0 9.09 0 9.06 0L8.99 0L8.93 0C8.9 0 8.86 0 8.83 0C3.95 0.12 0 4.08 0 8.87C0 15.03 6.99 20.71 8.39 21.79C8.57 21.93 8.78 22 9 22C9.21 22 9.42 21.93 9.6 21.79C11 20.71 18 15.03 18 8.87C18 4.08 14.04 0.12 9.16 0ZM9 19.79C7.11 18.23 1.96 13.53 1.96 8.87C1.96 5.1 5.09 1.98 8.95 1.92C8.96 1.92 8.98 1.92 8.99 1.92L9 1.92C9 1.92 9 1.92 9 1.92C9.01 1.92 9.03 1.92 9.05 1.92C12.9 1.98 16.03 5.1 16.03 8.87C16.03 13.53 10.88 18.23 9 19.79Z" fill="#FFFFFF" fill-opacity="1.000000" fill-rule="nonzero"/>
	<path d="M9.06 4.45C6.77 4.45 4.91 6.27 4.91 8.51C4.91 10.76 6.77 12.58 9.06 12.58C11.35 12.58 13.21 10.76 13.21 8.51C13.21 6.27 11.35 4.45 9.06 4.45ZM9.06 10.66C7.85 10.66 6.87 9.69 6.87 8.51C6.87 7.33 7.85 6.37 9.06 6.37C10.27 6.37 11.25 7.33 11.25 8.51C11.25 9.69 10.27 10.66 9.06 10.66Z" fill="#FFFFFF" fill-opacity="1.000000" fill-rule="nonzero"/>
</svg>
