<svg width="22.000000" height="22.000000" viewBox="0 0 22 22" fill="none" xmlns="http://www.w3.org/2000/svg" xmlns:xlink="http://www.w3.org/1999/xlink">
	<desc>
			Created with Pixso.
	</desc>
	<defs/>
	<path d="M17.28 14.92L18.85 14.92L18.85 18.85L17.28 18.85L17.28 14.92Z" fill="#FFFFFF" fill-opacity="1.000000" fill-rule="evenodd"/>
	<path d="M14.14 11L15.71 11L15.71 18.85L14.14 18.85L14.14 11Z" fill="#FFFFFF" fill-opacity="1.000000" fill-rule="evenodd"/>
	<path d="M7.07 18.85C6.03 18.85 5.03 18.44 4.29 17.7C3.55 16.96 3.14 15.97 3.14 14.92L4.71 14.92C4.71 15.39 4.85 15.85 5.11 16.23C5.37 16.62 5.73 16.92 6.16 17.1C6.6 17.28 7.07 17.33 7.53 17.24C7.98 17.14 8.4 16.92 8.73 16.59C9.06 16.26 9.29 15.84 9.38 15.38C9.47 14.93 9.42 14.45 9.24 14.02C9.07 13.59 8.76 13.22 8.38 12.96C7.99 12.7 7.53 12.57 7.07 12.57L7.07 11C8.11 11 9.11 11.41 9.84 12.15C10.58 12.88 11 13.88 11 14.92C11 15.97 10.58 16.96 9.84 17.7C9.11 18.44 8.11 18.85 7.07 18.85Z" fill="#FFFFFF" fill-opacity="1.000000" fill-rule="nonzero"/>
	<path d="M20.42 0L1.57 0C1.15 0 0.75 0.16 0.46 0.46C0.16 0.75 0 1.15 0 1.57L0 20.42C0 20.84 0.16 21.24 0.46 21.53C0.75 21.83 1.15 21.99 1.57 22L20.42 22C20.84 21.99 21.24 21.83 21.53 21.53C21.83 21.24 21.99 20.84 22 20.42L22 1.57C21.99 1.15 21.83 0.75 21.53 0.46C21.24 0.16 20.84 0 20.42 0ZM20.42 7.07L9.42 7.07L9.42 1.57L20.42 1.57L20.42 7.07ZM7.85 1.57L7.85 7.07L1.57 7.07L1.57 1.57L7.85 1.57ZM1.57 20.42L1.57 8.64L20.42 8.64L20.43 20.42L1.57 20.42Z" fill="#FFFFFF" fill-opacity="1.000000" fill-rule="nonzero"/>
</svg>
